<?xml version="1.0" encoding="utf-8"?>
<!-- Generator: Adobe Illustrator 19.0.0, SVG Export Plug-In . SVG Version: 6.00 Build 0)  -->
<svg version="1.1" xmlns="http://www.w3.org/2000/svg" xmlns:xlink="http://www.w3.org/1999/xlink" x="0px" y="0px"
	 viewBox="-963 345.5 66 66" style="enable-background:new -963 345.5 66 66;" xml:space="preserve">
<style type="text/css">
	.st0{fill:url(#SVGID_1_);}
	.st1{fill:url(#SVGID_2_);}
	.st2{fill:url(#SVGID_3_);}
	.st3{fill:url(#SVGID_4_);}
	.st4{fill:url(#SVGID_5_);}
	.st5{fill:url(#SVGID_6_);}
	.st6{fill:url(#SVGID_7_);}
	.st7{fill:url(#SVGID_8_);}
</style>
<g id="Слой_1">
</g>
<g id="Слой_2">
	<g>
		<g>
			<linearGradient id="SVGID_1_" gradientUnits="userSpaceOnUse" x1="-955.1326" y1="408.7041" x2="-906.9659" y2="368.5374">
				<stop  offset="3.710937e-04" style="stop-color:#007800"/>
				<stop  offset="1" style="stop-color:#004199"/>
			</linearGradient>
			<path class="st0" d="M-897.3,379.2l-11.7-10.9c-0.2-0.2-0.5-0.3-0.7-0.3h-2.1v-2.1h0.6l0,0c0.6,0,1-0.4,1-1
				c0-0.4-0.2-0.7-0.5-0.9l-25.3-18.3c-0.3-0.3-0.8-0.3-1.2,0l-25.4,18.4c-0.4,0.3-0.5,0.7-0.4,1.1s0.5,0.7,1,0.7h0.6v5.2
				c0,0.6,0.4,1,1,1h0.9V403c0,0.6,0.4,1,1,1c12,0,10.2,0,21.5,0v6.5c0,0.6,0.4,1,1,1h38c0.6,0,1-0.4,1-1V380
				C-897,379.7-897.1,379.4-897.3,379.2z M-936.6,347.7l22.3,16.2h-44.6L-936.6,347.7z M-908.6,371.3l8.1,7.6h-8.1V371.3z M-936,368
				c-0.6,0-1,0.4-1,1v1c-7.7,0-14.7,0-22.4,0v-4.1h45.7v2.1H-936z M-957.5,372h20.5v8.5h-6.9c-0.6,0-1,0.4-1,1V402h-12.6V372z
				 M-942.9,402v-19.5h5.9V402H-942.9z M-935,409.5V370h22.2l0,0l0,0h2.1v10c0,0.6,0.4,1,1,1h10.7v28.5H-935z"/>
		</g>
		<g>
			<linearGradient id="SVGID_2_" gradientUnits="userSpaceOnUse" x1="-972.9477" y1="387.3408" x2="-924.781" y2="347.1741">
				<stop  offset="3.710937e-04" style="stop-color:#007800"/>
				<stop  offset="1" style="stop-color:#004199"/>
			</linearGradient>
			<path class="st1" d="M-936.6,351.6c-3,0-5.4,2.4-5.4,5.4s2.4,5.4,5.4,5.4s5.4-2.4,5.4-5.4S-933.6,351.6-936.6,351.6z
				 M-936.6,360.4c-1.9,0-3.4-1.5-3.4-3.4s1.5-3.4,3.4-3.4c1.9,0,3.4,1.5,3.4,3.4S-934.7,360.4-936.6,360.4z"/>
		</g>
		<g>
			<linearGradient id="SVGID_3_" gradientUnits="userSpaceOnUse" x1="-957.6755" y1="405.6547" x2="-909.5089" y2="365.488">
				<stop  offset="3.710937e-04" style="stop-color:#007800"/>
				<stop  offset="1" style="stop-color:#004199"/>
			</linearGradient>
			<path class="st2" d="M-931.5,381h16.9c0.6,0,1-0.4,1-1v-6.5c0-0.6-0.4-1-1-1h-16.9c-0.6,0-1,0.4-1,1v6.5
				C-932.5,380.5-932,381-931.5,381z M-930.5,374.5h14.9v4.5h-14.9V374.5z"/>
		</g>
		<g>
			<linearGradient id="SVGID_4_" gradientUnits="userSpaceOnUse" x1="-953.1298" y1="411.1058" x2="-904.9631" y2="370.9391">
				<stop  offset="3.710937e-04" style="stop-color:#007800"/>
				<stop  offset="1" style="stop-color:#004199"/>
			</linearGradient>
			<path class="st3" d="M-931.4,384.7c-0.6,0-1,0.4-1,1s0.4,1,1,1h17.4c0.6,0,1-0.4,1-1s-0.4-1-1-1H-931.4z"/>
		</g>
		<g>
			<linearGradient id="SVGID_5_" gradientUnits="userSpaceOnUse" x1="-949.9819" y1="414.8807" x2="-901.8152" y2="374.714">
				<stop  offset="3.710937e-04" style="stop-color:#007800"/>
				<stop  offset="1" style="stop-color:#004199"/>
			</linearGradient>
			<path class="st4" d="M-914,391.1h-17.4c-0.6,0-1,0.4-1,1s0.4,1,1,1h17.4c0.6,0,1-0.4,1-1C-913,391.6-913.5,391.1-914,391.1z"/>
		</g>
		<g>
			<linearGradient id="SVGID_6_" gradientUnits="userSpaceOnUse" x1="-944.5288" y1="421.4198" x2="-896.3621" y2="381.2532">
				<stop  offset="3.710937e-04" style="stop-color:#007800"/>
				<stop  offset="1" style="stop-color:#004199"/>
			</linearGradient>
			<path class="st5" d="M-903,397.6h-28.4c-0.6,0-1,0.4-1,1s0.4,1,1,1h28.4c0.6,0,1-0.4,1-1S-902.4,397.6-903,397.6z"/>
		</g>
		<g>
			<linearGradient id="SVGID_7_" gradientUnits="userSpaceOnUse" x1="-941.3809" y1="425.1947" x2="-893.2142" y2="385.0281">
				<stop  offset="3.710937e-04" style="stop-color:#007800"/>
				<stop  offset="1" style="stop-color:#004199"/>
			</linearGradient>
			<path class="st6" d="M-903,404h-28.4c-0.6,0-1,0.4-1,1s0.4,1,1,1h28.4c0.6,0,1-0.4,1-1S-902.4,404-903,404z"/>
		</g>
		<g>
			<linearGradient id="SVGID_8_" gradientUnits="userSpaceOnUse" x1="-945.6116" y1="420.1214" x2="-897.4449" y2="379.9547">
				<stop  offset="3.710937e-04" style="stop-color:#007800"/>
				<stop  offset="1" style="stop-color:#004199"/>
			</linearGradient>
			<path class="st7" d="M-901.5,384.6l-6.1,5.8l-2-3.4c-0.3-0.5-0.9-0.6-1.4-0.4c-0.5,0.3-0.6,0.9-0.4,1.4l2.7,4.5
				c0.2,0.3,0.4,0.4,0.7,0.5c0.3,0,0.6-0.1,0.8-0.3l7-6.7c0.4-0.4,0.4-1,0-1.4C-900.5,384.2-901.1,384.2-901.5,384.6z"/>
		</g>
	</g>
</g>
</svg>
