<?xml version="1.0" encoding="utf-8"?>
<!-- Generator: Adobe Illustrator 19.0.0, SVG Export Plug-In . SVG Version: 6.00 Build 0)  -->
<svg version="1.1" id="Слой_1" xmlns="http://www.w3.org/2000/svg" xmlns:xlink="http://www.w3.org/1999/xlink" x="0px" y="0px"
	 viewBox="-59 30.1 64 57.2" style="enable-background:new -59 30.1 64 57.2;" xml:space="preserve">
<style type="text/css">
	.st0{fill:url(#SVGID_1_);}
	.st1{fill:url(#SVGID_2_);}
	.st2{fill:url(#SVGID_3_);}
</style>
<g>
	<linearGradient id="SVGID_1_" gradientUnits="userSpaceOnUse" x1="-43" y1="34.33" x2="5" y2="34.33">
		<stop  offset="0" style="stop-color:#004199"/>
		<stop  offset="0.9996" style="stop-color:#007800"/>
	</linearGradient>
	<path class="st0" d="M5,34.3c0-2.3-1.9-4.2-4.2-4.2h-39.6c-2.3,0-4.2,1.9-4.2,4.2c0,2.3,1.9,4.2,4.2,4.2H0.8
		C3.1,38.5,5,36.6,5,34.3z"/>
	<linearGradient id="SVGID_2_" gradientUnits="userSpaceOnUse" x1="-59" y1="58.73" x2="5" y2="58.73">
		<stop  offset="0" style="stop-color:#004199"/>
		<stop  offset="0.9996" style="stop-color:#007800"/>
	</linearGradient>
	<path class="st1" d="M-59,58.7c0,2.3,1.9,4.2,4.2,4.2H0.8C3.1,62.9,5,61,5,58.7s-1.9-4.2-4.2-4.2h-55.6C-57.1,54.5-59,56.4-59,58.7
		z"/>
	<linearGradient id="SVGID_3_" gradientUnits="userSpaceOnUse" x1="-43" y1="83.13" x2="5" y2="83.13">
		<stop  offset="0" style="stop-color:#004199"/>
		<stop  offset="0.9996" style="stop-color:#007800"/>
	</linearGradient>
	<path class="st2" d="M-43,83.1c0,2.3,1.9,4.2,4.2,4.2l39.6,0c2.3,0,4.2-1.9,4.2-4.2s-1.9-4.2-4.2-4.2l-39.6,0
		C-41.1,78.9-43,80.8-43,83.1z"/>
</g>
</svg>
