<?xml version="1.0" encoding="utf-8"?>
<!-- Generator: Adobe Illustrator 19.0.0, SVG Export Plug-In . SVG Version: 6.00 Build 0)  -->
<svg version="1.1" id="Слой_1" xmlns="http://www.w3.org/2000/svg" xmlns:xlink="http://www.w3.org/1999/xlink" x="0px" y="0px"
	 viewBox="-73.5 24.6 95 95" style="enable-background:new -73.5 24.6 95 95;" xml:space="preserve">
<style type="text/css">
	.st0{fill:url(#SVGID_1_);}
	.st1{fill:url(#SVGID_2_);}
</style>
<g>
	<linearGradient id="SVGID_1_" gradientUnits="userSpaceOnUse" x1="-55" y1="72.105" x2="8.1269" y2="72.105">
		<stop  offset="0" style="stop-color:#004199"/>
		<stop  offset="0.9996" style="stop-color:#007800"/>
	</linearGradient>
	<path class="st0" d="M-8.1,54.2c-2.6-2.6-6.8-2.6-9.4,0l-8.5,8.5l-8.6-8.6c-2.6-2.6-6.8-2.6-9.4,0c-2.6,2.6-2.6,6.8,0,9.4l8.6,8.6
		l-8.6,8.6c-2.6,2.6-2.6,6.8,0,9.4c1.3,1.3,3,1.9,4.7,1.9c1.7,0,3.4-0.6,4.7-1.9l8.6-8.6l8.6,8.6c1.3,1.3,3,1.9,4.7,1.9
		s3.4-0.6,4.7-1.9c2.6-2.6,2.6-6.8,0-9.4l-8.6-8.6l8.6-8.6C-5.5,60.9-5.5,56.7-8.1,54.2z"/>
	<linearGradient id="SVGID_2_" gradientUnits="userSpaceOnUse" x1="-55" y1="72.13" x2="8.1269" y2="72.13">
		<stop  offset="0" style="stop-color:#004199"/>
		<stop  offset="0.9996" style="stop-color:#007800"/>
	</linearGradient>
	<path class="st1" d="M-26,24.6c-26.2,0-47.5,21.3-47.5,47.5s21.3,47.5,47.5,47.5s47.5-21.3,47.5-47.5S0.2,24.6-26,24.6z M-26,110.8
		c-21.4,0-38.7-17.3-38.7-38.7S-47.4,33.4-26,33.4s38.7,17.3,38.7,38.7S-4.6,110.8-26,110.8z"/>
</g>
</svg>
