<?xml version="1.0" encoding="utf-8"?>
<!-- Generator: Adobe Illustrator 19.0.0, SVG Export Plug-In . SVG Version: 6.00 Build 0)  -->
<svg version="1.1" id="Слой_1" xmlns="http://www.w3.org/2000/svg" xmlns:xlink="http://www.w3.org/1999/xlink" x="0px" y="0px"
	 viewBox="1235.9 826.7 85.4 83.4" style="enable-background:new 1235.9 826.7 85.4 83.4;" xml:space="preserve">
<style type="text/css">
	.st0{fill:url(#SVGID_1_);}
	.st1{fill:url(#SVGID_2_);}
	.st2{fill:url(#SVGID_3_);}
	.st3{fill:url(#SVGID_4_);}
	.st4{fill:url(#SVGID_5_);}
	.st5{fill:url(#SVGID_6_);}
	.st6{fill:url(#SVGID_7_);}
	.st7{fill:url(#SVGID_8_);}
	.st8{fill:url(#SVGID_9_);}
	.st9{fill:url(#SVGID_10_);}
	.st10{fill:url(#SVGID_11_);}
	.st11{fill:url(#SVGID_12_);}
	.st12{fill:url(#SVGID_13_);}
</style>
<g>
	<g>
		<linearGradient id="SVGID_1_" gradientUnits="userSpaceOnUse" x1="1237.6666" y1="872.8881" x2="1318.0691" y2="872.8881">
			<stop  offset="0" style="stop-color:#004199"/>
			<stop  offset="1" style="stop-color:#007800"/>
		</linearGradient>
		<path class="st0" d="M1320.6,836.4c-0.4-0.4-1-0.7-1.7-0.7h-5.8c-1.3,0-2.3,1.1-2.3,2.3c0,1.3,1.1,2.3,2.3,2.3h3.4v15.5h-76v-15.5
			h4.6c1.3,0,2.4-1.1,2.4-2.3c0-1.3-1.1-2.3-2.4-2.3h-6.9c-0.6,0-1.2,0.3-1.7,0.7c-0.4,0.4-0.7,1-0.7,1.7v69.7
			c0,0.6,0.3,1.2,0.7,1.7c0.4,0.4,1,0.7,1.7,0.7h80.7c0.6,0,1.2-0.2,1.7-0.7c0.4-0.4,0.7-1,0.7-1.7v-69.7
			C1321.3,837.4,1321.1,836.8,1320.6,836.4z M1240.6,905.4v-44.8h76v44.8L1240.6,905.4L1240.6,905.4z"/>
		<linearGradient id="SVGID_2_" gradientUnits="userSpaceOnUse" x1="1237.6666" y1="838.0607" x2="1318.0691" y2="838.0607">
			<stop  offset="0" style="stop-color:#004199"/>
			<stop  offset="1" style="stop-color:#007800"/>
		</linearGradient>
		<path class="st1" d="M1264.7,840.4h29.6c1.3,0,2.4-1,2.4-2.3c0-1.3-1.1-2.3-2.4-2.3h-29.6c-1.3,0-2.3,1.1-2.3,2.3
			C1262.4,839.4,1263.4,840.4,1264.7,840.4z"/>
		<linearGradient id="SVGID_3_" gradientUnits="userSpaceOnUse" x1="1237.6666" y1="836.0881" x2="1318.0691" y2="836.0881">
			<stop  offset="0" style="stop-color:#004199"/>
			<stop  offset="1" style="stop-color:#007800"/>
		</linearGradient>
		<path class="st2" d="M1254.4,845.5c1.3,0,2.3-1.1,2.3-2.3v-14.1c0-1.3-1.1-2.3-2.3-2.3c-1.3,0-2.3,1.1-2.3,2.3v14.1
			C1252.1,844.4,1253.1,845.5,1254.4,845.5z"/>
		<linearGradient id="SVGID_4_" gradientUnits="userSpaceOnUse" x1="1237.6666" y1="836.0876" x2="1318.0691" y2="836.0876">
			<stop  offset="0" style="stop-color:#004199"/>
			<stop  offset="1" style="stop-color:#007800"/>
		</linearGradient>
		<path class="st3" d="M1303.3,845.5c1.3,0,2.3-1,2.3-2.3v-14.1c0-1.3-1.1-2.3-2.3-2.3c-1.3,0-2.3,1-2.3,2.3v14.1
			C1301,844.4,1302,845.5,1303.3,845.5z"/>
	</g>
	<linearGradient id="SVGID_5_" gradientUnits="userSpaceOnUse" x1="1237.6666" y1="871.6096" x2="1318.0691" y2="871.6096">
		<stop  offset="0" style="stop-color:#004199"/>
		<stop  offset="1" style="stop-color:#007800"/>
	</linearGradient>
	<path class="st4" d="M1297.1,869.5h-6.5c-1.2,0-2.2,1-2.2,2.2c0,1.2,1,2.1,2.2,2.1h6.5c1.2,0,2.2-1,2.2-2.1
		C1299.3,870.4,1298.3,869.5,1297.1,869.5z"/>
	<linearGradient id="SVGID_6_" gradientUnits="userSpaceOnUse" x1="1237.6666" y1="871.6107" x2="1318.0691" y2="871.6107">
		<stop  offset="0" style="stop-color:#004199"/>
		<stop  offset="1" style="stop-color:#007800"/>
	</linearGradient>
	<path class="st5" d="M1281.8,869.5h-6.5c-1.2,0-2.2,1-2.2,2.1c0,1.2,1,2.2,2.2,2.2h6.5c1.2,0,2.1-1,2.1-2.2
		C1284,870.4,1283,869.5,1281.8,869.5z"/>
	<linearGradient id="SVGID_7_" gradientUnits="userSpaceOnUse" x1="1237.6666" y1="871.6111" x2="1318.0691" y2="871.6111">
		<stop  offset="0" style="stop-color:#004199"/>
		<stop  offset="1" style="stop-color:#007800"/>
	</linearGradient>
	<path class="st6" d="M1266.9,869.5h-4.9c-1.2,0-2.1,1-2.1,2.1c0,1.2,1,2.2,2.1,2.2h4.9c1.2,0,2.2-1,2.2-2.2
		C1269,870.4,1268,869.5,1266.9,869.5z"/>
	<linearGradient id="SVGID_8_" gradientUnits="userSpaceOnUse" x1="1237.6666" y1="882.9666" x2="1318.0691" y2="882.9666">
		<stop  offset="0" style="stop-color:#004199"/>
		<stop  offset="1" style="stop-color:#007800"/>
	</linearGradient>
	<path class="st7" d="M1297.1,880.8h-6.5c-1.2,0-2.2,1-2.2,2.1c0,1.2,1,2.2,2.2,2.2h6.5c1.2,0,2.2-1,2.2-2.2
		C1299.3,881.8,1298.3,880.8,1297.1,880.8z"/>
	<linearGradient id="SVGID_9_" gradientUnits="userSpaceOnUse" x1="1237.6666" y1="882.9672" x2="1318.0691" y2="882.9672">
		<stop  offset="0" style="stop-color:#004199"/>
		<stop  offset="1" style="stop-color:#007800"/>
	</linearGradient>
	<path class="st8" d="M1281.8,880.8h-6.5c-1.2,0-2.2,1-2.2,2.1s1,2.2,2.2,2.2h6.5c1.2,0,2.1-1,2.1-2.2
		C1284,881.8,1283,880.8,1281.8,880.8z"/>
	<linearGradient id="SVGID_10_" gradientUnits="userSpaceOnUse" x1="1237.6666" y1="882.9661" x2="1318.0691" y2="882.9661">
		<stop  offset="0" style="stop-color:#004199"/>
		<stop  offset="1" style="stop-color:#007800"/>
	</linearGradient>
	<path class="st9" d="M1266.9,880.8h-4.9c-1.2,0-2.1,1-2.1,2.2c0,1.2,1,2.1,2.1,2.1h4.9c1.2,0,2.2-1,2.2-2.1
		C1269,881.8,1268,880.8,1266.9,880.8z"/>
	<linearGradient id="SVGID_11_" gradientUnits="userSpaceOnUse" x1="1237.6666" y1="894.3242" x2="1318.0691" y2="894.3242">
		<stop  offset="0" style="stop-color:#004199"/>
		<stop  offset="1" style="stop-color:#007800"/>
	</linearGradient>
	<path class="st10" d="M1297.1,892.2h-6.5c-1.2,0-2.2,1-2.2,2.2c0,1.2,1,2.2,2.2,2.2h6.5c1.2,0,2.2-1,2.2-2.2
		C1299.3,893.1,1298.3,892.2,1297.1,892.2z"/>
	<linearGradient id="SVGID_12_" gradientUnits="userSpaceOnUse" x1="1237.6666" y1="894.3242" x2="1318.0691" y2="894.3242">
		<stop  offset="0" style="stop-color:#004199"/>
		<stop  offset="1" style="stop-color:#007800"/>
	</linearGradient>
	<path class="st11" d="M1281.8,892.2h-6.5c-1.2,0-2.2,1-2.2,2.1c0,1.2,1,2.2,2.2,2.2h6.5c1.2,0,2.1-1,2.1-2.2
		C1284,893.1,1283,892.2,1281.8,892.2z"/>
	<linearGradient id="SVGID_13_" gradientUnits="userSpaceOnUse" x1="1237.6666" y1="894.3237" x2="1318.0691" y2="894.3237">
		<stop  offset="0" style="stop-color:#004199"/>
		<stop  offset="1" style="stop-color:#007800"/>
	</linearGradient>
	<path class="st12" d="M1266.9,892.2h-4.9c-1.2,0-2.1,1-2.1,2.2c0,1.2,1,2.1,2.1,2.1h4.9c1.2,0,2.2-1,2.2-2.1
		C1269,893.1,1268,892.2,1266.9,892.2z"/>
</g>
</svg>
