<?xml version="1.0" encoding="utf-8"?>
<!-- Generator: Adobe Illustrator 19.0.0, SVG Export Plug-In . SVG Version: 6.00 Build 0)  -->
<svg version="1.1" id="Слой_1" xmlns="http://www.w3.org/2000/svg" xmlns:xlink="http://www.w3.org/1999/xlink" x="0px" y="0px"
	 viewBox="-406.4 -175.4 862.7 862.5" style="enable-background:new -406.4 -175.4 862.7 862.5;" xml:space="preserve">
<style type="text/css">
	.st0{fill:url(#SVGID_1_);}
	.st1{fill:url(#SVGID_2_);}
	.st2{fill:url(#SVGID_3_);}
</style>
<g>
	<g>
		<g>
			<linearGradient id="SVGID_1_" gradientUnits="userSpaceOnUse" x1="104.2642" y1="0.7679" x2="456.2" y2="0.7679">
				<stop  offset="0" style="stop-color:#004199"/>
				<stop  offset="1" style="stop-color:#007800"/>
			</linearGradient>
			<path class="st0" d="M144.3-95.2c30.6,0,61.2,0,91.7,0c48.9,0,97.8,0,146.7,0c11.2,0,22.3,0,33.5,0c-13.3-13.3-26.7-26.7-40-40
				c0,30.6,0,61.2,0,91.7c0,48.9,0,97.8,0,146.7c0,11.2,0,22.3,0,33.5c0,20.9,18.4,41,40,40c21.7-1,40-17.6,40-40
				c0-30.6,0-61.2,0-91.7c0-48.9,0-97.8,0-146.7c0-11.2,0-22.3,0-33.5c0-21.6-18.3-40-40-40c-30.6,0-61.2,0-91.7,0
				c-48.9,0-97.8,0-146.7,0c-11.2,0-22.3,0-33.5,0c-20.9,0-41,18.4-40,40C105.2-113.6,121.8-95.2,144.3-95.2L144.3-95.2z"/>
		</g>
	</g>
	<g>
		<g>
			<linearGradient id="SVGID_2_" gradientUnits="userSpaceOnUse" x1="-74.8162" y1="90.2875" x2="456.2162" y2="90.2875">
				<stop  offset="0" style="stop-color:#004199"/>
				<stop  offset="1" style="stop-color:#007800"/>
			</linearGradient>
			<path class="st1" d="M-6.7,344.3c15-15,29.9-29.9,44.9-44.9C74.1,263.5,110,227.6,146,191.6c43.5-43.5,86.9-86.9,130.4-130.4
				C314,23.6,351.5-13.9,389.1-51.5c18.3-18.3,36.8-36.3,54.8-54.8c0.3-0.3,0.5-0.5,0.8-0.8c14.8-14.8,15.9-42,0-56.6
				c-16-14.7-40.8-15.8-56.6,0c-15,15-29.9,29.9-44.9,44.9C307.3-82.9,271.4-47,235.4-11c-43.5,43.5-87,87-130.4,130.5
				C67.4,157.1,29.9,194.6-7.7,232.2C-26,250.5-44.5,268.5-62.5,287c-0.3,0.3-0.5,0.5-0.8,0.8c-14.8,14.8-15.9,42,0,56.6
				C-47.3,358.9-22.5,360.1-6.7,344.3L-6.7,344.3z"/>
		</g>
	</g>
	<g>
		<g>
			<linearGradient id="SVGID_3_" gradientUnits="userSpaceOnUse" x1="-406.3929" y1="255.853" x2="456.2998" y2="255.853">
				<stop  offset="0" style="stop-color:#004199"/>
				<stop  offset="1" style="stop-color:#007800"/>
			</linearGradient>
			<path class="st2" d="M376.3,316.8c0,30.4,0,60.7,0,91.1c0,47.1,0,94.2,0,141.4c0,12.5,1,25.6-0.7,38.1c0.5-3.5,1-7.1,1.4-10.6
				c-0.9,5.8-2.4,11.3-4.6,16.8c1.3-3.2,2.7-6.4,4-9.6c-2.4,5.7-5.5,10.9-9.2,15.9c2.1-2.7,4.2-5.4,6.3-8.1
				c-3.8,4.8-8.1,9.1-12.9,12.9c2.7-2.1,5.4-4.2,8.1-6.3c-4.9,3.7-10.2,6.8-15.9,9.2c3.2-1.3,6.4-2.7,9.6-4
				c-5.4,2.2-11,3.7-16.8,4.6c3.5-0.5,7.1-1,10.6-1.4c-8.2,1.1-16.7,0.7-25,0.7c-15.5,0-30.9,0-46.4,0c-51.6,0-103.2,0-154.8,0
				c-62.7,0-125.5,0-188.2,0c-54,0-108,0-162,0c-25.4,0-50.8,0.2-76.1,0c-3.4,0-6.8-0.2-10.2-0.7c3.5,0.5,7.1,1,10.6,1.4
				c-5.8-0.9-11.3-2.4-16.8-4.6c3.2,1.3,6.4,2.7,9.6,4c-5.7-2.4-10.9-5.5-15.9-9.2c2.7,2.1,5.4,4.2,8.1,6.3
				c-4.8-3.8-9.1-8.1-12.9-12.9c2.1,2.7,4.2,5.4,6.3,8.1c-3.7-4.9-6.8-10.2-9.2-15.9c1.3,3.2,2.7,6.4,4,9.6
				c-2.2-5.4-3.7-11-4.6-16.8c0.5,3.5,1,7.1,1.4,10.6c-1.1-8.2-0.7-16.7-0.7-25c0-15.5,0-30.9,0-46.4c0-51.6,0-103.2,0-154.8
				c0-62.7,0-125.5,0-188.2c0-54,0-108,0-162c0-25.4-0.2-50.8,0-76.1c0-3.4,0.2-6.8,0.7-10.2c-0.5,3.5-1,7.1-1.4,10.6
				c0.9-5.8,2.4-11.3,4.6-16.8c-1.3,3.2-2.7,6.4-4,9.6c2.4-5.7,5.5-10.9,9.2-15.9c-2.1,2.7-4.2,5.4-6.3,8.1
				c3.8-4.8,8.1-9.1,12.9-12.9c-2.7,2.1-5.4,4.2-8.1,6.3c4.9-3.7,10.2-6.8,15.9-9.2c-3.2,1.3-6.4,2.7-9.6,4c5.4-2.2,11-3.7,16.8-4.6
				c-3.5,0.5-7.1,1-10.6,1.4c10.6-1.4,21.6-0.7,32.2-0.7c20.6,0,41.2,0,61.9,0c47.8,0,95.5,0,143.3,0c11.1,0,22.1,0,33.2,0
				c20.9,0,41-18.4,40-40c-1-21.7-17.6-40-40-40c-27.2,0-54.4,0-81.6,0c-45.4,0-90.9,0-136.3,0c-13.1,0-26.2,0-39.2,0
				c-30.7,0-60.5,10.7-82.1,33.1c-20.3,21.1-31.2,49-31.2,78.2c0,6.1,0,12.2,0,18.2c0,28.4,0,56.7,0,85.1c0,42.6,0,85.2,0,127.8
				c0,48,0,96.1,0,144.1c0,44.7,0,89.3,0,134c0,32.5,0,65,0,97.6c0,18.9-0.8,37.8,2.3,56.5c3.5,21.1,15.5,42,30.8,56.7
				c7.8,7.5,17,14.5,26.9,19.2c13.9,6.5,26.1,9.9,41.3,11.5c5.7,0.6,11.3,0.5,17,0.5c23.5,0,47.1,0,70.6,0c39.9,0,79.9,0,119.8,0
				c47.5,0,95,0,142.5,0c46.2,0,92.3,0,138.5,0c36.4,0,72.9,0,109.3,0c17.5,0,35,0,52.5,0c30-0.1,60.1-11.8,80.7-34
				c7.2-7.8,14.1-16.8,18.6-26.5c6.4-13.9,9.6-25.6,11.3-40.7c0.5-4.3,0.5-8.6,0.5-12.9c0-35.3,0-70.6,0-105.9
				c0-42.8,0-85.6,0-128.4c0-7.3,0-14.7,0-22c0-20.9-18.4-41-40-40C394.6,277.7,376.3,294.3,376.3,316.8L376.3,316.8z"/>
		</g>
	</g>
</g>
</svg>
