<?xml version="1.0" encoding="utf-8"?>
<!-- Generator: Adobe Illustrator 19.0.0, SVG Export Plug-In . SVG Version: 6.00 Build 0)  -->
<svg version="1.1" id="Слой_1" xmlns="http://www.w3.org/2000/svg" xmlns:xlink="http://www.w3.org/1999/xlink" x="0px" y="0px"
	 viewBox="1227.3 810.5 80 94" style="enable-background:new 1227.3 810.5 80 94;" xml:space="preserve">
<style type="text/css">
	.st0{fill:url(#SVGID_1_);}
</style>
<g transform="translate(0,-952.36218)">
	<linearGradient id="SVGID_1_" gradientUnits="userSpaceOnUse" x1="1227.3486" y1="1809.9071" x2="1307.3486" y2="1809.9071">
		<stop  offset="0" style="stop-color:#004199"/>
		<stop  offset="1" style="stop-color:#007800"/>
	</linearGradient>
	<path class="st0" d="M1229.2,1762.9c-1,0.1-1.8,1-1.8,2v82.4c0,5.3,4.3,9.6,9.6,9.6h50.9c5.3,0,9.6-4.3,9.6-9.6v-3.4
		c0-1.1-0.9-2-2-2h-6v-17c0.1,0,0.1,0,0.2,0l2.9,10.5c0.3,1.1,1.4,1.7,2.5,1.4c0.3-0.1,0.6-0.3,0.9-0.5l3.2-3.2l3.9,0.8
		c1.1,0.2,2.1-0.5,2.4-1.6c0.1-0.3,0.1-0.6,0-0.9l-3.1-12c3.2-3.2,5.1-7.7,5.1-12.5c0-9.9-8.1-18-18-18v-24c0-1.1-0.9-2-2-2h-58
		C1229.3,1762.9,1229.2,1762.9,1229.2,1762.9z M1231.3,1766.9h54v22.5c-8,1.8-14,9-14,17.5c0,4.9,2,9.3,5.1,12.5l-3.1,12
		c-0.3,1.1,0.4,2.2,1.5,2.4c0.3,0.1,0.6,0.1,0.9,0l3.9-0.8l3.2,3.2c0.6,0.6,1.6,0.8,2.4,0.3v5.2h-41c-1.1,0-2,0.9-2,2v3.4
		c0,0,0,0.1,0,0.1c0.1,2.9-2.2,5.3-5.1,5.4c-0.1,0-0.1,0-0.2,0h-0.1c-3.1,0-5.6-2.5-5.6-5.6V1766.9z M1238.2,1772.9
		c-1.1,0.1-2,1-1.9,2.1c0.1,1.1,1,2,2.1,1.9h40c1.1,0,2-0.9,2-2s-0.9-2-2-2c0,0,0,0-0.1,0h-40
		C1238.3,1772.9,1238.2,1772.9,1238.2,1772.9z M1238.2,1784.9c-1.1,0.1-2,1-1.9,2.1c0.1,1.1,1,2,2.1,1.9h40c1.1,0,2-0.9,2-2
		s-0.9-2-2-2c0,0,0,0-0.1,0h-40C1238.3,1784.9,1238.2,1784.9,1238.2,1784.9z M1289.3,1792.9c7.8,0,14,6.2,14,14c0,7.8-6.2,14-14,14
		c-7.8,0-14-6.2-14-14C1275.3,1799.2,1281.6,1792.9,1289.3,1792.9z M1238.2,1796.9c-1.1,0.1-2,1-1.9,2.1c0.1,1.1,1,2,2.1,1.9h28
		c1.1,0,2-0.9,2-2s-0.9-2-2-2c0,0,0,0-0.1,0h-28C1238.3,1796.9,1238.2,1796.9,1238.2,1796.9z M1289.3,1796.9c-5.5,0-10,4.5-10,10
		c0,5.5,4.5,10,10,10s10-4.5,10-10C1299.3,1801.4,1294.8,1796.9,1289.3,1796.9z M1289.3,1800.9c3.3,0,6,2.7,6,6c0,3.3-2.7,6-6,6
		s-6-2.7-6-6C1283.3,1803.6,1286,1800.9,1289.3,1800.9z M1238.2,1808.9c-1.1,0.1-2,1-1.9,2.1c0.1,1.1,1,2,2.1,1.9h28
		c1.1,0,2-0.9,2-2s-0.9-2-2-2c0,0,0,0-0.1,0h-28C1238.3,1808.9,1238.2,1808.9,1238.2,1808.9z M1238.2,1820.9c-1.1,0.1-2,1-1.9,2.1
		c0.1,1.1,1,2,2.1,1.9h30c1.1,0,2-0.9,2-2s-0.9-2-2-2c0,0,0,0-0.1,0h-30C1238.3,1820.9,1238.2,1820.9,1238.2,1820.9z M1279.9,1822.2
		c1.6,1,3.4,1.7,5.3,2.2l-1.8,6.6l-1.6-1.6c-0.5-0.5-1.2-0.7-1.8-0.5l-1.9,0.4L1279.9,1822.2z M1298.8,1822.2l1.8,7.1l-1.9-0.4
		c-0.7-0.1-1.3,0.1-1.8,0.5l-1.6,1.6l-1.8-6.6C1295.4,1824,1297.2,1823.2,1298.8,1822.2z M1238.2,1832.9c-1.1,0.1-2,1-1.9,2.1
		c0.1,1.1,1,2,2.1,1.9h30c1.1,0,2-0.9,2-2s-0.9-2-2-2c0,0,0,0-0.1,0h-30C1238.3,1832.9,1238.2,1832.9,1238.2,1832.9z M1246.3,1845.9
		h47v1.4c0,3.1-2.4,5.6-5.6,5.6h-43.3c1.2-1.6,1.9-3.4,1.9-5.6c0,0,0-0.1,0-0.1V1845.9z"/>
</g>
</svg>
