<?xml version="1.0" encoding="utf-8"?>
<!-- Generator: Adobe Illustrator 19.0.0, SVG Export Plug-In . SVG Version: 6.00 Build 0)  -->
<svg version="1.1" id="Слой_1" xmlns="http://www.w3.org/2000/svg" xmlns:xlink="http://www.w3.org/1999/xlink" x="0px" y="0px"
	 viewBox="-1924.8 717.4 46.6 46.6" style="enable-background:new -1924.8 717.4 46.6 46.6;" xml:space="preserve">
<style type="text/css">
	.st0{fill:url(#SVGID_1_);}
	.st1{fill:url(#SVGID_2_);}
</style>
<g>
	<linearGradient id="SVGID_1_" gradientUnits="userSpaceOnUse" x1="-1908.4603" y1="734.1557" x2="-1894.5374" y2="734.1557">
		<stop  offset="0" style="stop-color:#004199"/>
		<stop  offset="0.9996" style="stop-color:#007800"/>
	</linearGradient>
	<circle class="st0" cx="-1901.5" cy="734.2" r="7"/>
	<linearGradient id="SVGID_2_" gradientUnits="userSpaceOnUse" x1="-1924.7854" y1="740.676" x2="-1878.2122" y2="740.676">
		<stop  offset="0" style="stop-color:#004199"/>
		<stop  offset="0.9996" style="stop-color:#007800"/>
	</linearGradient>
	<path class="st1" d="M-1901.5,717.4c-12.8,0-23.3,10.4-23.3,23.3c0,12.8,10.4,23.3,23.3,23.3c12.8,0,23.3-10.4,23.3-23.3
		C-1878.2,727.8-1888.7,717.4-1901.5,717.4z M-1886.9,753.6c0-0.3,0-0.6,0-0.8c-0.8-5-3.9-9.2-7.9-11.4c-1.7,1.6-4.1,2.5-6.6,2.5
		c-2.5,0-4.9-1-6.6-2.5c-4.1,2.2-7.1,6.4-7.9,11.4c0,0.2,0,0.5,0,0.8c-3-3.4-4.9-8-4.9-12.9c0-10.7,8.7-19.5,19.5-19.5
		c10.7,0,19.5,8.7,19.5,19.5C-1882,745.6-1883.8,750.1-1886.9,753.6z"/>
</g>
</svg>
