<?xml version="1.0" encoding="utf-8"?>
<!-- Generator: Adobe Illustrator 19.0.0, SVG Export Plug-In . SVG Version: 6.00 Build 0)  -->
<svg version="1.1" id="Слой_1" xmlns="http://www.w3.org/2000/svg" xmlns:xlink="http://www.w3.org/1999/xlink" x="0px" y="0px"
	 viewBox="170.3 922.6 209.4 220.9" style="enable-background:new 170.3 922.6 209.4 220.9;" xml:space="preserve">
<style type="text/css">
	.st0{fill:url(#SVGID_1_);}
	.st1{fill:url(#SVGID_2_);}
	.st2{fill:url(#SVGID_3_);}
	.st3{fill:url(#SVGID_4_);}
</style>
<g>
	<linearGradient id="SVGID_1_" gradientUnits="userSpaceOnUse" x1="178" y1="1033.0453" x2="382.1886" y2="1033.0453">
		<stop  offset="0" style="stop-color:#004199"/>
		<stop  offset="1" style="stop-color:#007800"/>
	</linearGradient>
	<path class="st0" d="M314.3,1028.6l1.5-2.3c0.3-0.6,0.5-1.2,0.6-1.8c3.7-8.7,5.6-18.1,5.5-27.6c-0.8-41.9-35.5-75.1-77.3-74.3
		c-40.7,0.8-73.5,33.6-74.3,74.3c-0.1,9.5,1.8,18.8,5.5,27.6c0.1,0.6,0.3,1.2,0.6,1.8l1.3,2.3c0.7,1.4,1.5,2.8,2.4,4.2l60.6,107.6
		c1.7,2.9,5.4,4,8.3,2.3c1-0.5,1.8-1.3,2.3-2.3l60.6-107.6C312.7,1031.4,313.6,1030,314.3,1028.6z M303.5,1023.3L246.2,1125
		l-57.3-101.7h0.2c-4.3-8.1-6.5-17.2-6.4-26.3c-0.1-35.1,28.4-63.5,63.4-63.6c35.1,0,63.5,28.5,63.6,63.6c0.1,9.2-2.2,18.2-6.4,26.3
		H303.5z"/>
	<linearGradient id="SVGID_2_" gradientUnits="userSpaceOnUse" x1="178" y1="992.6899" x2="382.1886" y2="992.6899">
		<stop  offset="0" style="stop-color:#004199"/>
		<stop  offset="1" style="stop-color:#007800"/>
	</linearGradient>
	<path class="st1" d="M225.9,962.1c-16.9,11.2-21.5,34-10.3,50.9c6.8,10.3,18.3,16.4,30.6,16.4c7.2,0,14.2-2.1,20.3-6.1
		c16.9-11.2,21.5-34,10.3-50.9S242.8,950.9,225.9,962.1z M246.1,1016.9c-13.5,0-24.5-11-24.5-24.5s11-24.5,24.5-24.5
		s24.5,11,24.5,24.5S259.6,1016.9,246.1,1016.9z"/>
	<linearGradient id="SVGID_3_" gradientUnits="userSpaceOnUse" x1="178" y1="1088.2749" x2="382.1886" y2="1088.2749">
		<stop  offset="0" style="stop-color:#004199"/>
		<stop  offset="1" style="stop-color:#007800"/>
	</linearGradient>
	<path class="st2" d="M341.1,1033.1c-20.3,0.4-36.8,16.8-37.2,37.2c0,4.8,0.9,9.4,2.8,13.8c0,0.3,0.2,0.6,0.3,0.9l0.7,1.2
		c0.3,0.7,0.8,1.4,1.2,2.1l30.3,53.8c0.8,1.4,2.7,2,4.1,1.2c0.5-0.2,0.9-0.7,1.2-1.2l30.3-53.8c0.4-0.7,0.8-1.4,1.2-2.1l0.8-1.2
		c0.1-0.3,0.2-0.6,0.3-0.9c1.8-4.4,2.8-9.1,2.8-13.8C379.3,1049.3,362,1032.7,341.1,1033.1z M370.5,1083.4l-28.7,50.8l-28.7-50.8
		h0.1c-2.2-4-3.2-8.6-3.2-13.2c0-17.5,14.2-31.7,31.7-31.8c17.6,0,31.8,14.2,31.8,31.8C373.7,1074.9,372.5,1079.4,370.5,1083.4
		L370.5,1083.4z"/>
	<linearGradient id="SVGID_4_" gradientUnits="userSpaceOnUse" x1="178" y1="1072.9133" x2="382.1886" y2="1072.9133">
		<stop  offset="0" style="stop-color:#004199"/>
		<stop  offset="1" style="stop-color:#007800"/>
	</linearGradient>
	<path class="st3" d="M334.8,1058.6c-7.9,5.2-10.1,15.9-4.8,23.8c3.2,4.8,8.6,7.7,14.3,7.7c3.4,0,6.6-1,9.5-2.9
		c7.9-5.2,10.1-15.9,4.8-23.8C353.4,1055.5,342.7,1053.4,334.8,1058.6z M344.3,1084.2c-6.3,0-11.5-5.1-11.5-11.5s5.1-11.5,11.5-11.5
		s11.5,5.1,11.5,11.5S350.6,1084.2,344.3,1084.2z"/>
</g>
</svg>
