<?xml version="1.0" encoding="utf-8"?>
<!-- Generator: Adobe Illustrator 19.0.0, SVG Export Plug-In . SVG Version: 6.00 Build 0)  -->
<svg version="1.1" id="Слой_1" xmlns="http://www.w3.org/2000/svg" xmlns:xlink="http://www.w3.org/1999/xlink" x="0px" y="0px"
	 viewBox="1237.8 819.3 78.8 94.5" style="enable-background:new 1237.8 819.3 78.8 94.5;" xml:space="preserve">
<style type="text/css">
	.st0{fill:url(#SVGID_1_);}
	.st1{fill:url(#SVGID_2_);}
	.st2{fill:url(#SVGID_3_);}
	.st3{fill:url(#SVGID_4_);}
	.st4{fill:url(#SVGID_5_);}
	.st5{fill:url(#SVGID_6_);}
	.st6{fill:url(#SVGID_7_);}
	.st7{fill:url(#SVGID_8_);}
	.st8{fill:url(#SVGID_9_);}
	.st9{fill:url(#SVGID_10_);}
</style>
<g>
	<g transform="translate(-93.000000, -236.000000)">
		<g transform="translate(95.000000, 236.000000)">
			<linearGradient id="SVGID_1_" gradientUnits="userSpaceOnUse" x1="1237.3334" y1="831.1204" x2="1313.0265" y2="831.1204">
				<stop  offset="0" style="stop-color:#004199"/>
				<stop  offset="1" style="stop-color:#007800"/>
			</linearGradient>
			<path class="st0" d="M1314.6,831.1c0-7-11.6-11.8-25.6-11.8c-14,0-25.6,4.8-25.6,11.8s11.6,11.8,25.6,11.8
				C1303.1,842.9,1314.6,838.1,1314.6,831.1z M1267.4,831.1c0-3.9,9.6-7.9,21.7-7.9c12.1,0,21.7,4,21.7,7.9s-9.6,7.9-21.7,7.9
				C1276.9,839,1267.4,835,1267.4,831.1z"/>
			<linearGradient id="SVGID_2_" gradientUnits="userSpaceOnUse" x1="1237.3334" y1="842.9357" x2="1313.0265" y2="842.9357">
				<stop  offset="0" style="stop-color:#004199"/>
				<stop  offset="1" style="stop-color:#007800"/>
			</linearGradient>
			<path class="st1" d="M1263.4,842.9c0,7,11.6,11.8,25.6,11.8c14,0,25.6-4.8,25.6-11.8v-11.8h-3.9v11.8c0,3.9-9.6,7.9-21.7,7.9
				c-12.1,0-21.7-4-21.7-7.9v-11.8h-3.9V842.9z"/>
			<linearGradient id="SVGID_3_" gradientUnits="userSpaceOnUse" x1="1237.3334" y1="854.751" x2="1313.0265" y2="854.751">
				<stop  offset="0" style="stop-color:#004199"/>
				<stop  offset="1" style="stop-color:#007800"/>
			</linearGradient>
			<path class="st2" d="M1263.4,854.8C1263.4,854.8,1263.4,854.8,1263.4,854.8l0-11.9h3.9v11.8c0,0.1,0,0.2,0,0.3
				C1266.1,854.9,1264.8,854.8,1263.4,854.8z M1283.2,866.3c1.9,0.2,3.8,0.3,5.8,0.3c14,0,25.6-4.8,25.6-11.8v-11.8h-3.9v11.8
				c0,3.9-9.6,7.9-21.7,7.9c-2.1,0-4-0.1-5.9-0.3c0,0.1,0,0.2,0,0.3C1283.1,863,1283.1,864.3,1283.2,866.3z"/>
			<linearGradient id="SVGID_4_" gradientUnits="userSpaceOnUse" x1="1237.3334" y1="866.5663" x2="1313.0265" y2="866.5663">
				<stop  offset="0" style="stop-color:#004199"/>
				<stop  offset="1" style="stop-color:#007800"/>
			</linearGradient>
			<path class="st3" d="M1283.5,878.1c1.8,0.2,3.6,0.3,5.5,0.3c14,0,25.6-4.8,25.6-11.8v-11.8h-3.9v11.8c0,3.9-9.6,7.9-21.7,7.9
				c-2,0-3.8-0.1-5.6-0.3C1283.4,875.4,1283.5,876.8,1283.5,878.1z M1267.4,855.1v-0.3h-3.9v0
				C1264.8,854.8,1266.1,854.9,1267.4,855.1z"/>
			<linearGradient id="SVGID_5_" gradientUnits="userSpaceOnUse" x1="1237.3334" y1="866.5663" x2="1313.0265" y2="866.5663">
				<stop  offset="0" style="stop-color:#004199"/>
				<stop  offset="1" style="stop-color:#007800"/>
			</linearGradient>
			<path class="st4" d="M1287,866.6c0-7-11.6-11.8-25.6-11.8s-25.6,4.8-25.6,11.8s11.6,11.8,25.6,11.8S1287,873.6,1287,866.6z
				 M1239.8,866.6c0-3.9,9.6-7.9,21.7-7.9c12.1,0,21.7,4,21.7,7.9c0,3.9-9.6,7.9-21.7,7.9C1249.4,874.4,1239.8,870.4,1239.8,866.6z"
				/>
			<linearGradient id="SVGID_6_" gradientUnits="userSpaceOnUse" x1="1237.3334" y1="878.3817" x2="1313.0265" y2="878.3817">
				<stop  offset="0" style="stop-color:#004199"/>
				<stop  offset="1" style="stop-color:#007800"/>
			</linearGradient>
			<path class="st5" d="M1235.8,878.4c0,7,11.6,11.8,25.6,11.8s25.6-4.8,25.6-11.8v-11.8h-3.9v11.8c0,3.9-9.6,7.9-21.7,7.9
				c-12.1,0-21.7-4-21.7-7.9v-11.8h-3.9V878.4z"/>
			<linearGradient id="SVGID_7_" gradientUnits="userSpaceOnUse" x1="1237.3334" y1="890.197" x2="1313.0265" y2="890.197">
				<stop  offset="0" style="stop-color:#004199"/>
				<stop  offset="1" style="stop-color:#007800"/>
			</linearGradient>
			<path class="st6" d="M1235.8,890.2c0,7,11.6,11.8,25.6,11.8s25.6-4.8,25.6-11.8v-11.8h-3.9v11.8c0,3.9-9.6,7.9-21.7,7.9
				c-12.1,0-21.7-4-21.7-7.9v-11.8h-3.9V890.2z"/>
			<linearGradient id="SVGID_8_" gradientUnits="userSpaceOnUse" x1="1237.3334" y1="902.0123" x2="1313.0265" y2="902.0123">
				<stop  offset="0" style="stop-color:#004199"/>
				<stop  offset="1" style="stop-color:#007800"/>
			</linearGradient>
			<path class="st7" d="M1235.8,902c0,7,11.6,11.8,25.6,11.8S1287,909,1287,902v-11.8h-3.9V902c0,3.9-9.6,7.9-21.7,7.9
				c-12.1,0-21.7-4-21.7-7.9v-11.8h-3.9V902z"/>
			<linearGradient id="SVGID_9_" gradientUnits="userSpaceOnUse" x1="1237.3334" y1="878.3817" x2="1313.0265" y2="878.3817">
				<stop  offset="0" style="stop-color:#004199"/>
				<stop  offset="1" style="stop-color:#007800"/>
			</linearGradient>
			<path class="st8" d="M1283.8,890c1.7,0.2,3.4,0.2,5.2,0.2c14,0,25.6-4.8,25.6-11.8v-11.8h-3.9v11.8c0,3.9-9.6,7.9-21.7,7.9
				c-1.8,0-3.6-0.1-5.3-0.3C1283.7,887.4,1283.8,888.7,1283.8,890z"/>
			<linearGradient id="SVGID_10_" gradientUnits="userSpaceOnUse" x1="1237.3334" y1="890.197" x2="1313.0265" y2="890.197">
				<stop  offset="0" style="stop-color:#004199"/>
				<stop  offset="1" style="stop-color:#007800"/>
			</linearGradient>
			<path class="st9" d="M1284.1,901.8c1.6,0.1,3.2,0.2,4.9,0.2c14,0,25.6-4.8,25.6-11.8v-11.8h-3.9v11.8c0,3.9-9.6,7.9-21.7,7.9
				c-1.7,0-3.4-0.1-5-0.2C1284.1,899.9,1284.1,901.3,1284.1,901.8L1284.1,901.8z"/>
		</g>
	</g>
</g>
</svg>
