<?xml version="1.0" encoding="utf-8"?>
<!-- Generator: Adobe Illustrator 19.0.0, SVG Export Plug-In . SVG Version: 6.00 Build 0)  -->
<svg version="1.1" id="Слой_1" xmlns="http://www.w3.org/2000/svg" xmlns:xlink="http://www.w3.org/1999/xlink" x="0px" y="0px"
	 viewBox="1093.3 648.5 151.6 220.9" style="enable-background:new 1093.3 648.5 151.6 220.9;" xml:space="preserve">
<style type="text/css">
	.st0{fill:url(#SVGID_1_);}
	.st1{fill:url(#SVGID_2_);}
</style>
<linearGradient id="SVGID_1_" gradientUnits="userSpaceOnUse" x1="1093.3486" y1="759.0206" x2="1244.9756" y2="759.0206">
	<stop  offset="0" style="stop-color:#004199"/>
	<stop  offset="1" style="stop-color:#007800"/>
</linearGradient>
<path class="st0" d="M1238.8,752.2c0.3-0.6,0.5-1.2,0.6-1.8c3.7-8.7,5.6-18.1,5.5-27.6c-0.8-41.9-35.5-75.1-77.3-74.3
	c-40.7,0.8-73.5,33.6-74.3,74.3c-0.1,9.5,1.8,18.8,5.5,27.6c0.1,0.6,0.3,1.2,0.6,1.8l1.3,2.3c0.7,1.4,1.5,2.8,2.4,4.2l60.6,107.6
	c1.7,2.9,5.4,4,8.3,2.3c1-0.5,1.8-1.3,2.3-2.3l60.6-107.6c0.8-1.4,1.7-2.8,2.4-4.2L1238.8,752.2z M1169.1,659.3
	c35.1,0,63.5,28.5,63.6,63.6c0.1,9.2-2.2,18.2-6.4,26.3h0.2l-57.3,101.7l-57.3-101.7h0.2c-4.3-8.1-6.5-17.2-6.4-26.3
	C1105.6,687.8,1134.1,659.4,1169.1,659.3z"/>
<linearGradient id="SVGID_2_" gradientUnits="userSpaceOnUse" x1="1132.3828" y1="718.5909" x2="1205.8909" y2="718.5909">
	<stop  offset="0" style="stop-color:#004199"/>
	<stop  offset="1" style="stop-color:#007800"/>
</linearGradient>
<path class="st1" d="M1189.5,749.2c16.9-11.2,21.5-34,10.3-50.9c-11.2-16.9-34-21.5-50.9-10.3s-21.5,34-10.3,50.9
	c6.8,10.3,18.3,16.4,30.6,16.4C1176.4,755.3,1183.4,753.2,1189.5,749.2z M1169.1,693.8c13.5,0,24.5,11,24.5,24.5
	c0,13.5-11,24.5-24.5,24.5c-13.5,0-24.5-11-24.5-24.5C1144.6,704.8,1155.6,693.8,1169.1,693.8
	C1169.1,693.8,1169.1,693.8,1169.1,693.8z"/>
</svg>
