<?xml version="1.0" encoding="utf-8"?>
<!-- Generator: Adobe Illustrator 19.0.0, SVG Export Plug-In . SVG Version: 6.00 Build 0)  -->
<svg version="1.1" id="Слой_1" xmlns="http://www.w3.org/2000/svg" xmlns:xlink="http://www.w3.org/1999/xlink" x="0px" y="0px"
	 viewBox="1492.7 1024.7 240.6 175.9" style="enable-background:new 1492.7 1024.7 240.6 175.9;" xml:space="preserve">
<style type="text/css">
	.st0{fill:url(#SVGID_1_);}
	.st1{fill:url(#SVGID_2_);}
	.st2{fill:url(#SVGID_3_);}
	.st3{fill:url(#SVGID_4_);}
</style>
<g>
	<g>
		<linearGradient id="SVGID_1_" gradientUnits="userSpaceOnUse" x1="1501" y1="1112.6495" x2="1728.0552" y2="1112.6495">
			<stop  offset="0" style="stop-color:#004199"/>
			<stop  offset="1" style="stop-color:#007800"/>
		</linearGradient>
		<path class="st0" d="M1722.7,1030c0,5.5,0,11,0,16.5c0,13.2,0,26.3,0,39.5c0,15.9,0,31.8,0,47.8c0,13.8,0,27.5,0,41.3
			c0,6.6-0.3,13.4,0,20c0,0.1,0,0.2,0,0.3c1.8-1.8,3.5-3.5,5.3-5.3c-2.1,0-4.1,0-6.2,0c-5.6,0-11.1,0-16.7,0c-8.3,0-16.5,0-24.8,0
			c-10.1,0-20.1,0-30.1,0c-11,0-22,0-33,0c-11.1,0-22.2,0-33.3,0c-10.4,0-20.8,0-31.2,0c-8.8,0-17.5,0-26.3,0c-6.3,0-12.6,0-18.9,0
			c-3,0-6-0.1-8.9,0c-0.1,0-0.3,0-0.4,0c1.8,1.8,3.5,3.5,5.3,5.3c0-5.5,0-11,0-16.5c0-13.2,0-26.3,0-39.5c0-15.9,0-31.8,0-47.8
			c0-13.8,0-27.5,0-41.3c0-6.6,0.3-13.4,0-20c0-0.1,0-0.2,0-0.3c-1.8,1.8-3.5,3.5-5.3,5.3c2.1,0,4.1,0,6.2,0c5.6,0,11.1,0,16.7,0
			c8.3,0,16.5,0,24.8,0c10.1,0,20.1,0,30.1,0c11,0,22,0,33,0c11.1,0,22.2,0,33.3,0c10.4,0,20.8,0,31.2,0c8.8,0,17.5,0,26.3,0
			c6.3,0,12.6,0,18.9,0c3,0,6,0.1,8.9,0c0.1,0,0.3,0,0.4,0c2.8,0,5.4-2.4,5.3-5.3s-2.3-5.3-5.3-5.3c-2.1,0-4.1,0-6.2,0
			c-5.6,0-11.1,0-16.7,0c-8.3,0-16.5,0-24.8,0c-10.1,0-20.1,0-30.1,0c-11,0-22,0-33,0c-11.1,0-22.2,0-33.3,0c-10.4,0-20.8,0-31.2,0
			c-8.8,0-17.5,0-26.3,0c-6.3,0-12.6,0-18.9,0c-3,0-6-0.1-8.9,0c-0.1,0-0.3,0-0.4,0c-2.9,0-5.3,2.4-5.3,5.3c0,5.5,0,11,0,16.5
			c0,13.2,0,26.3,0,39.5c0,15.9,0,31.8,0,47.8c0,13.8,0,27.5,0,41.3c0,6.7-0.2,13.3,0,20c0,0.1,0,0.2,0,0.3c0,2.9,2.4,5.3,5.3,5.3
			c2.1,0,4.1,0,6.2,0c5.6,0,11.1,0,16.7,0c8.3,0,16.5,0,24.8,0c10.1,0,20.1,0,30.1,0c11,0,22,0,33,0c11.1,0,22.2,0,33.3,0
			c10.4,0,20.8,0,31.2,0c8.8,0,17.5,0,26.3,0c6.3,0,12.6,0,18.9,0c3,0,6,0.1,8.9,0c0.1,0,0.3,0,0.4,0c2.9,0,5.3-2.4,5.3-5.3
			c0-5.5,0-11,0-16.5c0-13.2,0-26.3,0-39.5c0-15.9,0-31.8,0-47.8c0-13.8,0-27.5,0-41.3c0-6.7,0.2-13.3,0-20c0-0.1,0-0.2,0-0.3
			c0-2.8-2.4-5.4-5.3-5.3C1725.1,1024.9,1722.7,1027.1,1722.7,1030z"/>
		<linearGradient id="SVGID_2_" gradientUnits="userSpaceOnUse" x1="1501" y1="1080.9335" x2="1728.0552" y2="1080.9335">
			<stop  offset="0" style="stop-color:#004199"/>
			<stop  offset="1" style="stop-color:#007800"/>
		</linearGradient>
		<path class="st1" d="M1494.4,1033.8c3.9,3.8,7.8,7.5,11.6,11.3c8.9,8.7,17.8,17.3,26.8,26c10.1,9.8,20.1,19.6,30.2,29.4
			c7.3,7.1,14.5,14.1,21.8,21.2c3.9,3.8,7.6,7.6,12.3,10.4c7.9,4.7,17.2,6.4,26.2,4.1c7.1-1.8,13.8-6,18.9-11.2
			c5.3-5.4,10.6-10.8,15.9-16.2c9.4-9.6,18.8-19.2,28.2-28.7c9.4-9.6,18.9-19.2,28.3-28.9c5.4-5.5,10.9-11,16.3-16.6
			c0.3-0.3,0.5-0.5,0.8-0.8c1.9-2,2.1-5.5,0-7.5c-2.1-1.9-5.4-2.1-7.5,0c-3.8,3.9-7.6,7.8-11.4,11.6c-8.8,8.9-17.5,17.9-26.3,26.8
			c-9.7,9.9-19.5,19.8-29.2,29.7c-6.7,6.9-13.5,13.8-20.2,20.6c-1,1.1-2,2.1-3.1,3.1c-0.6,0.6-1.3,1.1-1.9,1.7
			c-0.1,0.1-1.3,1.1-0.5,0.4c-0.3,0.2-0.5,0.4-0.8,0.6c-1.3,1-2.7,1.9-4.1,2.6c-0.6,0.3-1.1,0.6-1.7,0.9c-0.3,0.2-0.6,0.3-0.9,0.4
			c-0.9,0.4,0.1,0,0.2-0.1c-1.1,0.7-2.6,1-3.9,1.3c-0.6,0.1-1.1,0.3-1.7,0.4c-0.2,0.1-0.4,0.1-0.7,0.1c-1.2,0.2,1.3-0.1,0.1,0
			c-1.1,0.1-2.1,0.2-3.2,0.2c-1,0-2-0.2-3.1-0.2c1.7,0.1,0.2,0-0.3-0.1c-0.5-0.1-1-0.2-1.6-0.3c-0.9-0.2-1.7-0.5-2.5-0.7
			c-0.4-0.2-0.8-0.3-1.3-0.5c-0.2-0.1-1-0.4-0.1,0c1,0.4-0.1-0.1-0.3-0.2c-1.5-0.7-2.9-1.4-4.2-2.3c-0.6-0.4-1.2-0.8-1.7-1.2
			c-0.3-0.2-0.5-0.4-0.8-0.6c-0.1-0.1,1.2,1,0.6,0.5c-0.1-0.1-0.3-0.2-0.4-0.3c-0.7-0.6-1.4-1.2-2.1-1.8c-0.8-0.8-1.7-1.6-2.5-2.4
			c-6.1-5.9-12.2-11.9-18.3-17.8c-9.7-9.4-19.4-18.9-29.1-28.3c-9.5-9.2-18.9-18.4-28.4-27.6c-5.4-5.2-10.8-10.5-16.2-15.7
			c-0.3-0.2-0.5-0.5-0.8-0.7c-2-1.9-5.5-2.1-7.5,0C1492.5,1028.4,1492.2,1031.7,1494.4,1033.8L1494.4,1033.8z"/>
		<linearGradient id="SVGID_3_" gradientUnits="userSpaceOnUse" x1="1501" y1="1154.0427" x2="1728.0552" y2="1154.0427">
			<stop  offset="0" style="stop-color:#004199"/>
			<stop  offset="1" style="stop-color:#007800"/>
		</linearGradient>
		<path class="st2" d="M1731.7,1191.5c-2.7-2.7-5.4-5.5-8.1-8.2c-6.5-6.6-13-13.2-19.5-19.7c-7.8-7.9-15.7-15.8-23.5-23.8
			c-6.8-6.9-13.7-13.8-20.5-20.7c-3.3-3.3-6.5-6.7-9.9-10c-0.1-0.1-0.1-0.1-0.1-0.1c-2-2-5.6-2.1-7.5,0c-2,2.1-2.1,5.4,0,7.5
			c2.7,2.7,5.4,5.5,8.1,8.2c6.5,6.6,13,13.2,19.5,19.7c7.8,7.9,15.7,15.8,23.5,23.8c6.8,6.9,13.7,13.8,20.5,20.7
			c3.3,3.3,6.5,6.7,9.9,10c0.1,0.1,0.1,0.1,0.1,0.1c2,2,5.6,2.1,7.5,0C1733.6,1196.9,1733.8,1193.6,1731.7,1191.5L1731.7,1191.5z"/>
		<linearGradient id="SVGID_4_" gradientUnits="userSpaceOnUse" x1="1501" y1="1154.0377" x2="1728.0552" y2="1154.0377">
			<stop  offset="0" style="stop-color:#004199"/>
			<stop  offset="1" style="stop-color:#007800"/>
		</linearGradient>
		<path class="st3" d="M1501.8,1199c2.8-2.8,5.7-5.5,8.5-8.2c6.8-6.6,13.6-13.2,20.4-19.7c8.2-7.9,16.4-15.9,24.6-23.8
			c7.1-6.9,14.2-13.8,21.4-20.6c3.4-3.3,7-6.6,10.4-10c0.1-0.1,0.1-0.1,0.1-0.1c2-1.9,2.1-5.6,0-7.5c-2.1-2-5.3-2.1-7.5,0
			c-2.8,2.8-5.7,5.5-8.5,8.2c-6.8,6.6-13.6,13.2-20.4,19.7c-8.2,7.9-16.4,15.9-24.6,23.8c-7.1,6.9-14.2,13.8-21.4,20.6
			c-3.4,3.3-7,6.6-10.4,10c-0.1,0.1-0.1,0.1-0.1,0.1c-2,1.9-2.1,5.6,0,7.5C1496.5,1201,1499.7,1201.1,1501.8,1199L1501.8,1199z"/>
	</g>
</g>
</svg>
