<?xml version="1.0" encoding="utf-8"?>
<!-- Generator: Adobe Illustrator 19.0.0, SVG Export Plug-In . SVG Version: 6.00 Build 0)  -->
<svg version="1.1" id="Слой_1" xmlns="http://www.w3.org/2000/svg" xmlns:xlink="http://www.w3.org/1999/xlink" x="0px" y="0px"
	 viewBox="1233.9 823.1 66.2 66.3" style="enable-background:new 1233.9 823.1 66.2 66.3;" xml:space="preserve">
<style type="text/css">
	.st0{fill:url(#SVGID_1_);}
	.st1{fill:url(#SVGID_2_);}
</style>
<linearGradient id="SVGID_1_" gradientUnits="userSpaceOnUse" x1="1235.6666" y1="857.5435" x2="1296.0229" y2="857.5435">
	<stop  offset="0" style="stop-color:#004199"/>
	<stop  offset="1" style="stop-color:#007800"/>
</linearGradient>
<path class="st0" d="M1293.7,879.9c0,3.1-2.5,5.7-5.6,5.7h-44.9c-3.1,0-5.6-2.6-5.6-5.7V835c0-3.1,2.5-5.5,5.6-5.5h26.2v-3.7h-26.2
	c-5.2,0-9.3,4.1-9.3,9.3v44.9c0,5.2,4.2,9.4,9.3,9.4h44.9c5.2,0,9.3-4.3,9.3-9.4v-26.1h-3.7L1293.7,879.9L1293.7,879.9z"/>
<linearGradient id="SVGID_2_" gradientUnits="userSpaceOnUse" x1="1235.6666" y1="843.5527" x2="1296.0229" y2="843.5527">
	<stop  offset="0" style="stop-color:#004199"/>
	<stop  offset="1" style="stop-color:#007800"/>
</linearGradient>
<path class="st1" d="M1297.9,825.2c-2.8-2.8-7.8-2.8-10.6,0l-25.1,25.1c-0.2,0.2-0.4,0.5-0.5,0.9l-2.6,10.6c-0.2,0.6,0,1.3,0.5,1.8
	c0.4,0.4,0.8,0.5,1.3,0.5c0.2,0,0.3,0,0.5-0.1l10.6-2.6c0.3-0.1,0.6-0.3,0.9-0.5l25.1-25.1c1.4-1.4,2.2-3.3,2.2-5.3
	C1300.1,828.5,1299.4,826.6,1297.9,825.2z M1270.6,857.8l-7.1,1.8l1.8-7.1l20.8-20.8l5.3,5.3L1270.6,857.8z M1295.3,833.1l-1.3,1.3
	l-5.3-5.3l1.3-1.3c1.4-1.4,3.9-1.4,5.3,0c0.7,0.7,1.1,1.6,1.1,2.6C1296.4,831.5,1296,832.4,1295.3,833.1z"/>
</svg>
