<?xml version="1.0" encoding="utf-8"?>
<!-- Generator: Adobe Illustrator 19.0.0, SVG Export Plug-In . SVG Version: 6.00 Build 0)  -->
<svg version="1.1"
	 id="Слой_1" xmlns:inkscape="http://www.inkscape.org/namespaces/inkscape" xmlns:rdf="http://www.w3.org/1999/02/22-rdf-syntax-ns#" xmlns:svg="http://www.w3.org/2000/svg" xmlns:cc="http://creativecommons.org/ns#" xmlns:sodipodi="http://sodipodi.sourceforge.net/DTD/sodipodi-0.dtd" xmlns:dc="http://purl.org/dc/elements/1.1/"
	 xmlns="http://www.w3.org/2000/svg" xmlns:xlink="http://www.w3.org/1999/xlink" x="0px" y="0px" viewBox="-971.6 358.6 45.2 45.2"
	 style="enable-background:new -971.6 358.6 45.2 45.2;" xml:space="preserve">
<style type="text/css">
	.st0{fill:url(#SVGID_1_);}
</style>
<g transform="translate(0,-1002.3622)">
	<linearGradient id="SVGID_1_" gradientUnits="userSpaceOnUse" x1="-971.576" y1="1383.5662" x2="-926.424" y2="1383.5662">
		<stop  offset="0" style="stop-color:#004199"/>
		<stop  offset="1" style="stop-color:#007800"/>
	</linearGradient>
	<path class="st0" d="M-967.5,1365.1c-1.9,1.9-1.9,4.9,0,6.7c1.9,1.9,4.9,1.9,6.7,0c1.9-1.9,1.9-4.9,0-6.7
		C-962.6,1363.2-965.7,1363.2-967.5,1365.1z M-970.9,1402.1c-0.9,0.9-0.9,2.4,0,3.4c0.9,0.9,2.4,0.9,3.4,0l40.4-40.4
		c0.9-0.9,0.9-2.4,0-3.4c-0.9-0.9-2.4-0.9-3.4,0C-930.5,1361.7-970.9,1402.1-970.9,1402.1z M-937.2,1395.3c-1.9,1.9-1.9,4.9,0,6.7
		c1.9,1.9,4.9,1.9,6.7,0c1.9-1.9,1.9-4.9,0-6.7C-932.3,1393.5-935.4,1393.5-937.2,1395.3z"/>
</g>
</svg>
