<?xml version="1.0" encoding="utf-8"?>
<!-- Generator: Adobe Illustrator 19.0.0, SVG Export Plug-In . SVG Version: 6.00 Build 0)  -->
<svg version="1.1"
	 id="Слой_1" xmlns:inkscape="http://www.inkscape.org/namespaces/inkscape" xmlns:rdf="http://www.w3.org/1999/02/22-rdf-syntax-ns#" xmlns:svg="http://www.w3.org/2000/svg" xmlns:cc="http://creativecommons.org/ns#" xmlns:sodipodi="http://sodipodi.sourceforge.net/DTD/sodipodi-0.dtd" xmlns:dc="http://purl.org/dc/elements/1.1/"
	 xmlns="http://www.w3.org/2000/svg" xmlns:xlink="http://www.w3.org/1999/xlink" x="0px" y="0px" viewBox="-720 644.8 203.2 267.3"
	 style="enable-background:new -720 644.8 203.2 267.3;" xml:space="preserve">
<style type="text/css">
	.st0{fill:url(#SVGID_1_);}
	.st1{fill:url(#SVGID_2_);}
	.st2{fill:url(#SVGID_3_);}
	.st3{fill:url(#SVGID_4_);}
	.st4{fill:url(#SVGID_5_);}
	.st5{fill:url(#SVGID_6_);}
	.st6{fill:url(#SVGID_7_);}
	.st7{fill:url(#SVGID_8_);}
	.st8{fill:url(#SVGID_9_);}
	.st9{fill:url(#SVGID_10_);}
	.st10{fill:url(#SVGID_11_);}
</style>
<g>
	<g>
		<linearGradient id="SVGID_1_" gradientUnits="userSpaceOnUse" x1="-714.6666" y1="778.4896" x2="-524.8164" y2="778.4896">
			<stop  offset="0" style="stop-color:#004199"/>
			<stop  offset="1" style="stop-color:#007800"/>
		</linearGradient>
		<path class="st0" d="M-517.2,701.6c-0.3-0.7-0.7-1.2-1.2-1.7l-53.5-53.5c-0.5-0.5-1.1-0.9-1.7-1.2c-0.6-0.3-1.3-0.4-2.1-0.4h-139
			c-3,0-5.3,2.4-5.3,5.3v256.6c0,3,2.4,5.3,5.3,5.3h192.5c3,0,5.3-2.4,5.3-5.3V703.6C-516.8,702.9-516.9,702.2-517.2,701.6z
			 M-570.3,663.1l35.2,35.2h-35.2V663.1z M-709.3,901.5V655.5H-581v48.1c0,3,2.4,5.3,5.3,5.3h48.1v192.5H-709.3z"/>
		<linearGradient id="SVGID_2_" gradientUnits="userSpaceOnUse" x1="-714.6666" y1="692.9429" x2="-524.8164" y2="692.9429">
			<stop  offset="0" style="stop-color:#004199"/>
			<stop  offset="1" style="stop-color:#007800"/>
		</linearGradient>
		<path class="st1" d="M-661.2,687.6h-10.7c-3,0-5.3,2.4-5.3,5.3s2.4,5.3,5.3,5.3h10.7c3,0,5.3-2.4,5.3-5.3
			S-658.2,687.6-661.2,687.6z"/>
		<linearGradient id="SVGID_3_" gradientUnits="userSpaceOnUse" x1="-714.6666" y1="692.9429" x2="-524.8164" y2="692.9429">
			<stop  offset="0" style="stop-color:#004199"/>
			<stop  offset="1" style="stop-color:#007800"/>
		</linearGradient>
		<path class="st2" d="M-629.1,698.3h21.4c3,0,5.3-2.4,5.3-5.3s-2.4-5.3-5.3-5.3h-21.4c-3,0-5.3,2.4-5.3,5.3S-632,698.3-629.1,698.3
			z"/>
		<linearGradient id="SVGID_4_" gradientUnits="userSpaceOnUse" x1="-714.6666" y1="735.7162" x2="-524.8164" y2="735.7162">
			<stop  offset="0" style="stop-color:#004199"/>
			<stop  offset="1" style="stop-color:#007800"/>
		</linearGradient>
		<path class="st3" d="M-661.2,730.4h-10.7c-3,0-5.3,2.4-5.3,5.3c0,3,2.4,5.3,5.3,5.3h10.7c3,0,5.3-2.4,5.3-5.3
			C-655.8,732.8-658.2,730.4-661.2,730.4z"/>
		<linearGradient id="SVGID_5_" gradientUnits="userSpaceOnUse" x1="-714.6666" y1="735.7162" x2="-524.8164" y2="735.7162">
			<stop  offset="0" style="stop-color:#004199"/>
			<stop  offset="1" style="stop-color:#007800"/>
		</linearGradient>
		<path class="st4" d="M-564.9,730.4h-64.2c-3,0-5.3,2.4-5.3,5.3c0,3,2.4,5.3,5.3,5.3h64.2c3,0,5.3-2.4,5.3-5.3
			C-559.6,732.8-562,730.4-564.9,730.4z"/>
		<linearGradient id="SVGID_6_" gradientUnits="userSpaceOnUse" x1="-714.6666" y1="778.4896" x2="-524.8164" y2="778.4896">
			<stop  offset="0" style="stop-color:#004199"/>
			<stop  offset="1" style="stop-color:#007800"/>
		</linearGradient>
		<path class="st5" d="M-661.2,773.1h-10.7c-3,0-5.3,2.4-5.3,5.3s2.4,5.3,5.3,5.3h10.7c3,0,5.3-2.4,5.3-5.3
			S-658.2,773.1-661.2,773.1z"/>
		<linearGradient id="SVGID_7_" gradientUnits="userSpaceOnUse" x1="-714.6666" y1="778.4896" x2="-524.8164" y2="778.4896">
			<stop  offset="0" style="stop-color:#004199"/>
			<stop  offset="1" style="stop-color:#007800"/>
		</linearGradient>
		<path class="st6" d="M-564.9,773.1h-64.2c-3,0-5.3,2.4-5.3,5.3s2.4,5.3,5.3,5.3h64.2c3,0,5.3-2.4,5.3-5.3S-562,773.1-564.9,773.1z
			"/>
		<linearGradient id="SVGID_8_" gradientUnits="userSpaceOnUse" x1="-714.6666" y1="821.2629" x2="-524.8164" y2="821.2629">
			<stop  offset="0" style="stop-color:#004199"/>
			<stop  offset="1" style="stop-color:#007800"/>
		</linearGradient>
		<path class="st7" d="M-661.2,815.9h-10.7c-3,0-5.3,2.4-5.3,5.3s2.4,5.3,5.3,5.3h10.7c3,0,5.3-2.4,5.3-5.3
			S-658.2,815.9-661.2,815.9z"/>
		<linearGradient id="SVGID_9_" gradientUnits="userSpaceOnUse" x1="-714.6666" y1="821.2629" x2="-524.8164" y2="821.2629">
			<stop  offset="0" style="stop-color:#004199"/>
			<stop  offset="1" style="stop-color:#007800"/>
		</linearGradient>
		<path class="st8" d="M-564.9,815.9h-64.2c-3,0-5.3,2.4-5.3,5.3s2.4,5.3,5.3,5.3h64.2c3,0,5.3-2.4,5.3-5.3S-562,815.9-564.9,815.9z
			"/>
		<linearGradient id="SVGID_10_" gradientUnits="userSpaceOnUse" x1="-714.6666" y1="864.0362" x2="-524.8164" y2="864.0362">
			<stop  offset="0" style="stop-color:#004199"/>
			<stop  offset="1" style="stop-color:#007800"/>
		</linearGradient>
		<path class="st9" d="M-661.2,858.7h-10.7c-3,0-5.3,2.4-5.3,5.3c0,3,2.4,5.3,5.3,5.3h10.7c3,0,5.3-2.4,5.3-5.3
			C-655.8,861.1-658.2,858.7-661.2,858.7z"/>
		<linearGradient id="SVGID_11_" gradientUnits="userSpaceOnUse" x1="-714.6666" y1="864.0362" x2="-524.8164" y2="864.0362">
			<stop  offset="0" style="stop-color:#004199"/>
			<stop  offset="1" style="stop-color:#007800"/>
		</linearGradient>
		<path class="st10" d="M-564.9,858.7h-64.2c-3,0-5.3,2.4-5.3,5.3c0,3,2.4,5.3,5.3,5.3h64.2c3,0,5.3-2.4,5.3-5.3
			C-559.6,861.1-562,858.7-564.9,858.7z"/>
	</g>
</g>
</svg>
