<?xml version="1.0" encoding="utf-8"?>
<!-- Generator: Adobe Illustrator 19.0.0, SVG Export Plug-In . SVG Version: 6.00 Build 0)  -->
<svg version="1.1"
	 id="Слой_1" xmlns:inkscape="http://www.inkscape.org/namespaces/inkscape" xmlns:rdf="http://www.w3.org/1999/02/22-rdf-syntax-ns#" xmlns:svg="http://www.w3.org/2000/svg" xmlns:cc="http://creativecommons.org/ns#" xmlns:sodipodi="http://sodipodi.sourceforge.net/DTD/sodipodi-0.dtd" xmlns:dc="http://purl.org/dc/elements/1.1/"
	 xmlns="http://www.w3.org/2000/svg" xmlns:xlink="http://www.w3.org/1999/xlink" x="0px" y="0px" viewBox="-720 687.2 225 225"
	 style="enable-background:new -720 687.2 225 225;" xml:space="preserve">
<style type="text/css">
	.st0{fill:url(#SVGID_1_);}
	.st1{fill:url(#SVGID_2_);}
	.st2{fill:url(#SVGID_3_);}
	.st3{fill:url(#SVGID_4_);}
	.st4{fill:url(#SVGID_5_);}
	.st5{fill:url(#SVGID_6_);}
	.st6{fill:url(#SVGID_7_);}
	.st7{fill:url(#SVGID_8_);}
	.st8{fill:url(#SVGID_9_);}
	.st9{fill:url(#SVGID_10_);}
	.st10{fill:url(#SVGID_11_);}
	.st11{fill:url(#SVGID_12_);}
	.st12{fill:url(#SVGID_13_);}
	.st13{fill:url(#SVGID_14_);}
	.st14{fill:url(#SVGID_15_);}
	.st15{fill:url(#SVGID_16_);}
	.st16{fill:url(#SVGID_17_);}
</style>
<linearGradient id="SVGID_1_" gradientUnits="userSpaceOnUse" x1="-712.0912" y1="785.6877" x2="-501.0817" y2="785.6877">
	<stop  offset="0" style="stop-color:#004199"/>
	<stop  offset="1" style="stop-color:#007800"/>
</linearGradient>
<rect x="-572.5" y="782" class="st0" width="59.2" height="7.4"/>
<linearGradient id="SVGID_2_" gradientUnits="userSpaceOnUse" x1="-712.0912" y1="708.25" x2="-501.0817" y2="708.25">
	<stop  offset="0" style="stop-color:#004199"/>
	<stop  offset="1" style="stop-color:#007800"/>
</linearGradient>
<path class="st1" d="M-698.9,729.3c11.6,0,21.1-9.5,21.1-21.1s-9.5-21.1-21.1-21.1s-21.1,9.5-21.1,21.1S-710.5,729.3-698.9,729.3z
	 M-698.9,694.2c7.8,0,14.1,6.3,14.1,14.1s-6.3,14.1-14.1,14.1s-14.1-6.3-14.1-14.1S-706.6,694.2-698.9,694.2z"/>
<linearGradient id="SVGID_3_" gradientUnits="userSpaceOnUse" x1="-712.0912" y1="708.25" x2="-501.0817" y2="708.25">
	<stop  offset="0" style="stop-color:#004199"/>
	<stop  offset="1" style="stop-color:#007800"/>
</linearGradient>
<path class="st2" d="M-586.4,708.2c0-11.6-9.5-21.1-21.1-21.1s-21.1,9.5-21.1,21.1s9.5,21.1,21.1,21.1S-586.4,719.9-586.4,708.2z
	 M-621.5,708.2c0-7.8,6.3-14.1,14.1-14.1s14.1,6.3,14.1,14.1s-6.3,14.1-14.1,14.1S-621.5,716-621.5,708.2z"/>
<linearGradient id="SVGID_4_" gradientUnits="userSpaceOnUse" x1="-712.0912" y1="708.25" x2="-501.0817" y2="708.25">
	<stop  offset="0" style="stop-color:#004199"/>
	<stop  offset="1" style="stop-color:#007800"/>
</linearGradient>
<path class="st3" d="M-516.1,687.2c-11.6,0-21.1,9.5-21.1,21.1s9.5,21.1,21.1,21.1s21.1-9.5,21.1-21.1S-504.4,687.2-516.1,687.2z
	 M-516.1,722.3c-7.8,0-14.1-6.3-14.1-14.1s6.3-14.1,14.1-14.1c7.8,0,14.1,6.3,14.1,14.1S-508.3,722.3-516.1,722.3z"/>
<linearGradient id="SVGID_5_" gradientUnits="userSpaceOnUse" x1="-712.0912" y1="833.0547" x2="-501.0817" y2="833.0547">
	<stop  offset="0" style="stop-color:#004199"/>
	<stop  offset="1" style="stop-color:#007800"/>
</linearGradient>
<path class="st4" d="M-516.1,764.5c-10.4,0-19.1,7.6-20.8,17.6H-576c-1.8-15.8-15.2-28.1-31.4-28.1s-29.7,12.3-31.4,28.1h-39.2
	c-1.7-10-10.3-17.6-20.8-17.6c-11.6,0-21.1,9.5-21.1,21.1s9.5,21.1,21.1,21.1c10.4,0,19.1-7.6,20.8-17.6h39.2
	c1.3,12,9.4,22.3,20.9,26.3v25l-13,13c-0.7,0.7-1,1.6-1,2.5v24.6c0,0.9,0.4,1.8,1,2.5l13,13v12.6c0,1.9,1.6,3.5,3.5,3.5h42.2
	c9.7,0,17.6-7.9,17.6-17.6v-63.3c0-5.8-4.7-10.5-10.5-10.5c-2.7,0-5.2,1.1-7,2.7c-1.9-1.7-4.3-2.7-7-2.7c-2.7,0-5.2,1.1-7,2.7
	c-1.9-1.7-4.3-2.7-7-2.7c-1.2,0-2.4,0.3-3.5,0.6v-6c11.4-4,19.5-14.3,20.9-26.3h39.2c1.7,10,10.3,17.6,20.8,17.6
	c11.6,0,21.1-9.5,21.1-21.1C-495,774-504.4,764.5-516.1,764.5z M-698.9,799.7c-7.8,0-14.1-6.3-14.1-14.1s6.3-14.1,14.1-14.1
	s14.1,6.3,14.1,14.1S-691.1,799.7-698.9,799.7z M-593.4,827.8c1.9,0,3.5,1.6,3.5,3.5v17.6h7v-17.6c0-1.9,1.6-3.5,3.5-3.5
	c1.9,0,3.5,1.6,3.5,3.5v17.6h3.5l3.5,0l0-17.6c0-1.9,1.6-3.5,3.5-3.5c1.9,0,3.5,1.6,3.5,3.5v63.3c0,5.8-4.7,10.5-10.5,10.5H-611
	v-10.5c0-0.9-0.4-1.8-1-2.5l-13-13v-21.7l7-7v16.1h7v-53.7v-20.2c0-1.9,1.6-3.5,3.5-3.5c1.9,0,3.5,1.6,3.5,3.5v20.2v18.5v17.6h7
	v-17.6C-596.9,829.4-595.3,827.8-593.4,827.8z M-596.9,807.8v-15.2c0-5.8-4.7-10.5-10.6-10.5c-5.8,0-10.5,4.7-10.5,10.5v15.2
	c-8.5-4-14.1-12.6-14.1-22.2c0-13.6,11-24.6,24.6-24.6s24.6,11,24.6,24.6C-582.9,795.2-588.5,803.8-596.9,807.8z M-516.1,799.7
	c-7.8,0-14.1-6.3-14.1-14.1s6.3-14.1,14.1-14.1c7.8,0,14.1,6.3,14.1,14.1S-508.3,799.7-516.1,799.7z"/>
<linearGradient id="SVGID_6_" gradientUnits="userSpaceOnUse" x1="-712.0912" y1="862.9375" x2="-501.0817" y2="862.9375">
	<stop  offset="0" style="stop-color:#004199"/>
	<stop  offset="1" style="stop-color:#007800"/>
</linearGradient>
<path class="st5" d="M-698.9,884c11.6,0,21.1-9.5,21.1-21.1s-9.5-21.1-21.1-21.1s-21.1,9.5-21.1,21.1S-710.5,884-698.9,884z
	 M-698.9,848.9c7.8,0,14.1,6.3,14.1,14.1s-6.3,14.1-14.1,14.1s-14.1-6.3-14.1-14.1S-706.6,848.9-698.9,848.9z"/>
<linearGradient id="SVGID_7_" gradientUnits="userSpaceOnUse" x1="-712.0912" y1="862.9375" x2="-501.0817" y2="862.9375">
	<stop  offset="0" style="stop-color:#004199"/>
	<stop  offset="1" style="stop-color:#007800"/>
</linearGradient>
<path class="st6" d="M-516.1,841.8c-11.6,0-21.1,9.5-21.1,21.1s9.5,21.1,21.1,21.1s21.1-9.5,21.1-21.1S-504.4,841.8-516.1,841.8z
	 M-516.1,877c-7.8,0-14.1-6.3-14.1-14.1s6.3-14.1,14.1-14.1c7.8,0,14.1,6.3,14.1,14.1S-508.3,877-516.1,877z"/>
<linearGradient id="SVGID_8_" gradientUnits="userSpaceOnUse" x1="-712.0912" y1="704.7344" x2="-501.0817" y2="704.7344">
	<stop  offset="0" style="stop-color:#004199"/>
	<stop  offset="1" style="stop-color:#007800"/>
</linearGradient>
<rect x="-670.7" y="701.2" class="st7" width="7" height="7"/>
<linearGradient id="SVGID_9_" gradientUnits="userSpaceOnUse" x1="-712.0912" y1="704.7344" x2="-501.0817" y2="704.7344">
	<stop  offset="0" style="stop-color:#004199"/>
	<stop  offset="1" style="stop-color:#007800"/>
</linearGradient>
<rect x="-656.7" y="701.2" class="st8" width="7" height="7"/>
<linearGradient id="SVGID_10_" gradientUnits="userSpaceOnUse" x1="-712.0912" y1="704.7344" x2="-501.0817" y2="704.7344">
	<stop  offset="0" style="stop-color:#004199"/>
	<stop  offset="1" style="stop-color:#007800"/>
</linearGradient>
<rect x="-642.6" y="701.2" class="st9" width="7" height="7"/>
<linearGradient id="SVGID_11_" gradientUnits="userSpaceOnUse" x1="-712.0912" y1="704.7344" x2="-501.0817" y2="704.7344">
	<stop  offset="0" style="stop-color:#004199"/>
	<stop  offset="1" style="stop-color:#007800"/>
</linearGradient>
<rect x="-579.3" y="701.2" class="st10" width="7" height="7"/>
<linearGradient id="SVGID_12_" gradientUnits="userSpaceOnUse" x1="-712.0912" y1="704.7344" x2="-501.0817" y2="704.7344">
	<stop  offset="0" style="stop-color:#004199"/>
	<stop  offset="1" style="stop-color:#007800"/>
</linearGradient>
<rect x="-565.3" y="701.2" class="st11" width="7" height="7"/>
<linearGradient id="SVGID_13_" gradientUnits="userSpaceOnUse" x1="-712.0912" y1="704.7344" x2="-501.0817" y2="704.7344">
	<stop  offset="0" style="stop-color:#004199"/>
	<stop  offset="1" style="stop-color:#007800"/>
</linearGradient>
<rect x="-551.2" y="701.2" class="st12" width="7" height="7"/>
<linearGradient id="SVGID_14_" gradientUnits="userSpaceOnUse" x1="-712.0912" y1="862.9375" x2="-501.0817" y2="862.9375">
	<stop  offset="0" style="stop-color:#004199"/>
	<stop  offset="1" style="stop-color:#007800"/>
</linearGradient>
<rect x="-670.7" y="859.4" class="st13" width="7" height="7"/>
<linearGradient id="SVGID_15_" gradientUnits="userSpaceOnUse" x1="-712.0912" y1="862.9375" x2="-501.0817" y2="862.9375">
	<stop  offset="0" style="stop-color:#004199"/>
	<stop  offset="1" style="stop-color:#007800"/>
</linearGradient>
<rect x="-656.7" y="859.4" class="st14" width="7" height="7"/>
<linearGradient id="SVGID_16_" gradientUnits="userSpaceOnUse" x1="-712.0912" y1="862.9375" x2="-501.0817" y2="862.9375">
	<stop  offset="0" style="stop-color:#004199"/>
	<stop  offset="1" style="stop-color:#007800"/>
</linearGradient>
<rect x="-642.6" y="859.4" class="st15" width="7" height="7"/>
<linearGradient id="SVGID_17_" gradientUnits="userSpaceOnUse" x1="-712.0912" y1="862.9375" x2="-501.0817" y2="862.9375">
	<stop  offset="0" style="stop-color:#004199"/>
	<stop  offset="1" style="stop-color:#007800"/>
</linearGradient>
<rect x="-551.2" y="859.4" class="st16" width="7" height="7"/>
</svg>
