<?xml version="1.0" encoding="utf-8"?>
<!-- Generator: Adobe Illustrator 19.0.0, SVG Export Plug-In . SVG Version: 6.00 Build 0)  -->
<svg version="1.1" id="Слой_1" xmlns="http://www.w3.org/2000/svg" xmlns:xlink="http://www.w3.org/1999/xlink" x="0px" y="0px"
	 viewBox="1231.7 819.3 92.1 94.5" style="enable-background:new 1231.7 819.3 92.1 94.5;" xml:space="preserve">
<style type="text/css">
	.st0{fill:url(#SVGID_1_);}
	.st1{fill:url(#SVGID_2_);}
</style>
<g>
	<linearGradient id="SVGID_1_" gradientUnits="userSpaceOnUse" x1="1234.3334" y1="866.5663" x2="1318.4451" y2="866.5663">
		<stop  offset="0" style="stop-color:#004199"/>
		<stop  offset="1" style="stop-color:#007800"/>
	</linearGradient>
	<path class="st0" d="M1311.6,862.2v-23c0-6.1-4.9-11-11-11h-0.3v-5.9c0-1.7-1.3-3-3-3h-10.5c-1.7,0-3,1.3-3,3v5.9h-24.3v-5.9
		c0-1.7-1.3-3-3-3H1246c-1.7,0-3,1.3-3,3v5.9h-0.3c-6.1,0-11,4.9-11,11v53.9c0,6.1,4.9,11,11,11h31.3c10.3,11.8,28.3,13,40.1,2.7
		c11.8-10.3,13-28.3,2.7-40.1c-1.5-1.8-3.3-3.3-5.2-4.6V862.2z M1289.8,825.3h4.5v9.1h-4.5V825.3z M1249,825.3h4.5v9.1h-4.5V825.3z
		 M1242.7,834.2h0.3v3.2c0,1.7,1.3,3,3,3h10.5c1.7,0,3-1.3,3-3v-3.2h24.3v3.2c0,1.7,1.3,3,3,3h10.5c1.7,0,3-1.3,3-3v-3.2h0.3
		c2.8,0,5,2.2,5,5v5.5h-67.8v-5.5C1237.8,836.4,1240,834.2,1242.7,834.2L1242.7,834.2z M1242.7,898.1c-2.8,0-5-2.2-5-5v-42.4h67.9
		v8.4c-14.7-5.5-31.1,2-36.6,16.6c-2.7,7.3-2.3,15.4,1.1,22.4H1242.7z M1295.5,908.1c-12.4-0.1-22.4-10.1-22.3-22.5
		c0.1-12.4,10.1-22.4,22.5-22.3c12.3,0.1,22.2,10,22.3,22.3C1318,898,1308,908.1,1295.5,908.1L1295.5,908.1z"/>
	<linearGradient id="SVGID_2_" gradientUnits="userSpaceOnUse" x1="1291.2792" y1="880.6051" x2="1307.9792" y2="880.6051">
		<stop  offset="0" style="stop-color:#004199"/>
		<stop  offset="1" style="stop-color:#007800"/>
	</linearGradient>
	<path class="st1" d="M1297.3,884.6v-14h-6v17c0,1.7,1.3,3,3,3h13.7v-6H1297.3z"/>
</g>
</svg>
