<?xml version="1.0" encoding="utf-8"?>
<!-- Generator: Adobe Illustrator 19.0.0, SVG Export Plug-In . SVG Version: 6.00 Build 0)  -->
<svg version="1.1" id="Слой_1" xmlns="http://www.w3.org/2000/svg" xmlns:xlink="http://www.w3.org/1999/xlink" x="0px" y="0px"
	 viewBox="1233.8 824 67 67" style="enable-background:new 1233.8 824 67 67;" xml:space="preserve">
<style type="text/css">
	.st0{fill:url(#SVGID_1_);}
	.st1{fill:url(#SVGID_2_);}
	.st2{fill:url(#SVGID_3_);}
	.st3{fill:url(#SVGID_4_);}
</style>
<g>
	<linearGradient id="SVGID_1_" gradientUnits="userSpaceOnUse" x1="1233.8369" y1="858.2121" x2="1299.5245" y2="858.2121">
		<stop  offset="0" style="stop-color:#004199"/>
		<stop  offset="1" style="stop-color:#007800"/>
	</linearGradient>
	<path class="st0" d="M1257.9,882.9c5.3,5.3,12.3,8.2,19.8,8.2c7.5,0,14.5-2.9,19.8-8.2l0.8-0.8c1.7-1.7,1.7-4.5,0-6.2l-10.4-10.4
		c-0.8-0.8-1.9-1.3-3.1-1.3s-2.3,0.5-3.1,1.3l-4.6,4.6c-1,1-2.8,1-3.8,0l-18.4-18.4c-1.1-1.1-1.1-2.8,0-3.8l4.6-4.6
		c1.7-1.7,1.7-4.5,0-6.2l-10.4-10.4c-1.7-1.7-4.5-1.7-6.2,0l-0.8,0.8c-5.3,5.3-8.2,12.3-8.2,19.8c0,7.5,2.9,14.5,8.2,19.8
		L1257.9,882.9z M1244.8,830.3l0.8-0.8c0.1-0.1,0.2-0.1,0.3-0.1s0.2,0,0.3,0.1l10.4,10.4c0.1,0.1,0.1,0.4,0,0.5l-4.6,4.6
		c-1.3,1.3-2,3-2,4.8s0.7,3.5,2,4.8l18.4,18.4c1.3,1.3,3,2,4.8,2c1.8,0,3.5-0.7,4.8-2l4.6-4.6c0.1-0.1,0.4-0.1,0.5,0l10.4,10.4
		c0.1,0.1,0.1,0.4,0,0.5l-0.8,0.8c-4.5,4.5-10.5,7-16.9,7s-12.4-2.5-17-7l-15.9-15.9c-4.5-4.5-7-10.5-7-17
		C1237.8,840.8,1240.3,834.8,1244.8,830.3z"/>
	<linearGradient id="SVGID_2_" gradientUnits="userSpaceOnUse" x1="1269.2222" y1="844.7073" x2="1291.1489" y2="844.7073">
		<stop  offset="0" style="stop-color:#004199"/>
		<stop  offset="1" style="stop-color:#007800"/>
	</linearGradient>
	<path class="st1" d="M1289.1,855.7c0.2,0,0.3,0,0.5-0.1c1.1-0.3,1.7-1.3,1.5-2.4c-1-4.3-3.6-8.6-7.2-12.2
		c-3.6-3.6-7.9-6.2-12.2-7.2c-1.1-0.3-2.2,0.4-2.4,1.5c-0.3,1.1,0.4,2.2,1.5,2.4c3.6,0.9,7.2,3.1,10.3,6.2c3.1,3.1,5.3,6.8,6.2,10.3
		C1287.4,855.1,1288.2,855.7,1289.1,855.7z"/>
	<linearGradient id="SVGID_3_" gradientUnits="userSpaceOnUse" x1="1266.8369" y1="850.7557" x2="1281.438" y2="850.7557">
		<stop  offset="0" style="stop-color:#004199"/>
		<stop  offset="1" style="stop-color:#007800"/>
	</linearGradient>
	<path class="st2" d="M1269.3,843.5c-1.1-0.3-2.2,0.4-2.4,1.5s0.4,2.2,1.5,2.4c1.8,0.4,3.9,1.7,5.6,3.5c1.8,1.8,3.1,3.9,3.5,5.6
		c0.2,0.9,1,1.5,1.9,1.5c0.2,0,0.3,0,0.5-0.1c1.1-0.3,1.7-1.3,1.5-2.4c-0.6-2.5-2.3-5.2-4.6-7.5
		C1274.5,845.8,1271.8,844.1,1269.3,843.5z"/>
	<linearGradient id="SVGID_4_" gradientUnits="userSpaceOnUse" x1="1271.6079" y1="838.6585" x2="1300.8604" y2="838.6585">
		<stop  offset="0" style="stop-color:#004199"/>
		<stop  offset="1" style="stop-color:#007800"/>
	</linearGradient>
	<path class="st3" d="M1274.1,824.1c-1.1-0.3-2.2,0.4-2.4,1.5s0.4,2.2,1.5,2.4c5.3,1.3,10.6,4.4,15,8.8c4.4,4.4,7.5,9.7,8.8,15
		c0.2,0.9,1,1.5,1.9,1.5c0.2,0,0.3,0,0.5-0.1c1.1-0.3,1.7-1.3,1.5-2.4c-1.5-6-5-12-9.8-16.9C1286.1,829.1,1280.1,825.6,1274.1,824.1
		z"/>
</g>
</svg>
