<?xml version="1.0" encoding="utf-8"?>
<!-- Generator: Adobe Illustrator 19.0.0, SVG Export Plug-In . SVG Version: 6.00 Build 0)  -->
<svg version="1.1" id="Слой_1" xmlns="http://www.w3.org/2000/svg" xmlns:xlink="http://www.w3.org/1999/xlink" x="0px" y="0px"
	 viewBox="-1941.8 700.4 32 32" style="enable-background:new -1941.8 700.4 32 32;" xml:space="preserve">
<style type="text/css">
	.st0{fill:url(#SVGID_1_);}
	.st1{fill:url(#SVGID_2_);}
</style>
<g>
	<linearGradient id="SVGID_1_" gradientUnits="userSpaceOnUse" x1="-1941.7854" y1="716.3893" x2="-1909.7854" y2="716.3893">
		<stop  offset="0" style="stop-color:#004199"/>
		<stop  offset="0.9996" style="stop-color:#007800"/>
	</linearGradient>
	<path class="st0" d="M-1925.8,732.4c-8.8,0-16-7.2-16-16s7.2-16,16-16s16,7.2,16,16S-1916.9,732.4-1925.8,732.4z M-1925.8,702.4
		c-7.7,0-14,6.3-14,14s6.3,14,14,14s14-6.3,14-14S-1918.1,702.4-1925.8,702.4z"/>
	<linearGradient id="SVGID_2_" gradientUnits="userSpaceOnUse" x1="-1926.7854" y1="712.8893" x2="-1915.7854" y2="712.8893">
		<stop  offset="0" style="stop-color:#004199"/>
		<stop  offset="0.9996" style="stop-color:#007800"/>
	</linearGradient>
	<path class="st1" d="M-1915.8,718.4h-10c-0.6,0-1-0.4-1-1v-10h2v9h9V718.4z"/>
</g>
</svg>
