<?xml version="1.0" encoding="utf-8"?>
<!-- Generator: Adobe Illustrator 19.0.0, SVG Export Plug-In . SVG Version: 6.00 Build 0)  -->
<svg version="1.1" id="Слой_1" xmlns="http://www.w3.org/2000/svg" xmlns:xlink="http://www.w3.org/1999/xlink" x="0px" y="0px"
	 viewBox="0 0 670 90" style="enable-background:new 0 0 670 90;" xml:space="preserve">
<style type="text/css">
	.st0{clip-path:url(#XMLID_54_);fill:url(#XMLID_55_);}
	.st1{fill:#FFFFFF;}
	.st2{clip-path:url(#XMLID_56_);fill:url(#XMLID_57_);}
	.st3{opacity:0.27;clip-path:url(#XMLID_58_);}
	.st4{clip-path:url(#XMLID_59_);}
	.st5{clip-path:url(#XMLID_60_);fill:url(#XMLID_61_);}
	.st6{clip-path:url(#XMLID_62_);fill:url(#XMLID_63_);}
	.st7{fill:#4F4F4F;}
</style>
<g id="XMLID_31_">
	<g id="XMLID_51_">
		<defs>
			<path id="XMLID_52_" d="M68.9,44.9c0,22.1,17.9,40,40,40c22.1,0,40-17.9,40-40c0-22.1-17.9-40-40-40
				C86.8,4.9,68.9,22.8,68.9,44.9"/>
		</defs>
		<clipPath id="XMLID_54_">
			<use xlink:href="#XMLID_52_"  style="overflow:visible;"/>
		</clipPath>
		
			<linearGradient id="XMLID_55_" gradientUnits="userSpaceOnUse" x1="-52.8599" y1="243.8556" x2="-51.8599" y2="243.8556" gradientTransform="matrix(-316.7825 288.0566 288.0566 316.7825 -86824.8594 -62028.1484)">
			<stop  offset="0" style="stop-color:#009500"/>
			<stop  offset="0.5016" style="stop-color:#004300"/>
			<stop  offset="1" style="stop-color:#003900"/>
		</linearGradient>
		<polygon id="XMLID_53_" class="st0" points="188.8,48.7 105.1,124.8 29,41.1 112.7,-35 		"/>
	</g>
	<g id="XMLID_49_">
		<path id="XMLID_50_" class="st1" d="M86.5,44.9c0,23.3-17.9,42.2-40,42.2c-22.1,0-40-18.9-40-42.2c0-23.3,17.9-42.2,40-42.2
			C68.6,2.7,86.5,21.6,86.5,44.9"/>
	</g>
	<g id="XMLID_46_">
		<defs>
			<path id="XMLID_47_" d="M0.9,44.9c0,22.1,17.9,40,40,40c22.1,0,40-17.9,40-40c0-22.1-17.9-40-40-40C18.9,4.9,0.9,22.8,0.9,44.9"
				/>
		</defs>
		<clipPath id="XMLID_56_">
			<use xlink:href="#XMLID_47_"  style="overflow:visible;"/>
		</clipPath>
		
			<linearGradient id="XMLID_57_" gradientUnits="userSpaceOnUse" x1="-52.8517" y1="243.8942" x2="-51.8517" y2="243.8942" gradientTransform="matrix(-401.3642 250.1545 250.1545 401.3642 -82133.1172 -84655.5156)">
			<stop  offset="0" style="stop-color:#005899"/>
			<stop  offset="0.5016" style="stop-color:#000099"/>
			<stop  offset="1" style="stop-color:#000063"/>
		</linearGradient>
		<polygon id="XMLID_48_" class="st2" points="117,62.5 23.3,120.9 -35,27.3 58.6,-31.1 		"/>
	</g>
	<g id="XMLID_40_">
		<defs>
			<path id="XMLID_41_" d="M0.9,44.9c0,22.1,17.9,40,40,40c22.1,0,40-17.9,40-40c0-22.1-17.9-40-40-40C18.9,4.9,0.9,22.8,0.9,44.9"
				/>
		</defs>
		<clipPath id="XMLID_58_">
			<use xlink:href="#XMLID_41_"  style="overflow:visible;"/>
		</clipPath>
		<g id="XMLID_42_" class="st3">
			<g id="XMLID_43_">
				<defs>
					<rect id="XMLID_44_" x="1.7" y="7" width="70.4" height="60.3"/>
				</defs>
				<clipPath id="XMLID_59_">
					<use xlink:href="#XMLID_44_"  style="overflow:visible;"/>
				</clipPath>
				<polygon id="XMLID_45_" class="st4" points="60,7 25.6,51.3 5.2,28.2 1.7,37.5 27.4,67.3 32.6,60.5 72,9.3 				"/>
			</g>
		</g>
	</g>
	<g id="XMLID_38_">
		<polygon id="XMLID_39_" class="st1" points="59.3,3.6 24.8,47.8 4.5,24.8 1,34 25.2,61.6 30.5,54.7 69.9,3.6 		"/>
	</g>
	<g id="XMLID_35_">
		<defs>
			<path id="XMLID_36_" d="M629,33.2h7.7c2.5,0,4.5,0.7,6,2c1.5,1.3,2.3,3,2.3,5.1c0,3-1.7,5.4-4.4,6.4l6.9,9.4h-6.8l-7.5-8.7h-2.3
				v8.7h-2.2c3.8,6.2,11.5,10.3,19.3,10.3c8.6,0,16-5.1,19.4-12.4c-1.9,1.7-4.2,2.6-7.1,2.6c-2.9,0-5.3-0.9-7.2-2.6
				c-1.9-1.8-2.8-4.2-2.8-7.4V33.2h5.9v13.6c0,2.9,1.8,4.3,4.1,4.3c2.4,0,4.1-1.4,4.1-4.3V33.2h1.6c-3.8-5.9-10.5-9.8-18-9.8
				C640.4,23.4,632.8,27.3,629,33.2"/>
		</defs>
		<clipPath id="XMLID_60_">
			<use xlink:href="#XMLID_36_"  style="overflow:visible;"/>
		</clipPath>
		
			<linearGradient id="XMLID_61_" gradientUnits="userSpaceOnUse" x1="-53.2007" y1="244.1366" x2="-52.1723" y2="244.1366" gradientTransform="matrix(-364.7915 276.7011 276.7011 364.7915 -86284.0938 -74314.8828)">
			<stop  offset="0" style="stop-color:#005899"/>
			<stop  offset="0.5016" style="stop-color:#000099"/>
			<stop  offset="1" style="stop-color:#000063"/>
		</linearGradient>
		<polygon id="XMLID_37_" class="st5" points="686.1,50.7 643.5,84.5 607,39.1 653.7,5.2 		"/>
	</g>
	<g id="XMLID_32_">
		<defs>
			<path id="XMLID_33_" d="M630.9,38.2v4.4h5.5c1.6,0,2.6-0.8,2.6-2.2c0-1.3-1-2.2-2.6-2.2H630.9z"/>
		</defs>
		<clipPath id="XMLID_62_">
			<use xlink:href="#XMLID_33_"  style="overflow:visible;"/>
		</clipPath>
		
			<linearGradient id="XMLID_63_" gradientUnits="userSpaceOnUse" x1="-53.2083" y1="244.1375" x2="-52.1127" y2="244.1375" gradientTransform="matrix(-364.7915 276.7011 276.7011 364.7915 -86291.1172 -74324.1406)">
			<stop  offset="0" style="stop-color:#005899"/>
			<stop  offset="0.5016" style="stop-color:#000099"/>
			<stop  offset="1" style="stop-color:#000063"/>
		</linearGradient>
		<polygon id="XMLID_34_" class="st6" points="641.1,41 633.5,46 628.8,39.8 636.4,34.8 		"/>
	</g>
</g>
<g id="XMLID_2_">
	<path id="XMLID_29_" class="st7" d="M178.7,64.6h-7.6V27.5h7.6l10.8,15.4l10.8-15.4h7.5v37.1h-7.5V39.2l-8.5,11.9h-4.2l-8.7-11.9
		V64.6z"/>
	<path id="XMLID_26_" class="st7" d="M224.9,64.6h-8l15.9-37.3h7.3l15.9,37.3h-8.1l-3.7-8.6h-15.7L224.9,64.6z M236.4,36.8L231,49.7
		h10.9L236.4,36.8z"/>
	<path id="XMLID_23_" class="st7" d="M272.9,64.6h-7.6V27.5h17.2c4,0,7.1,1,9.3,3.1c2.3,2,3.4,4.6,3.4,7.9c0,2.5-0.7,4.6-2,6.4
		c-1.4,1.8-3.2,3.1-5.6,3.8l11.4,15.8h-8.9l-10.8-15h-6.4V64.6z M272.9,34.2v9h9.1c1.7,0,3.1-0.4,4.1-1.2c1-0.8,1.5-1.9,1.5-3.3
		c0-1.4-0.5-2.5-1.5-3.3c-1-0.8-2.3-1.2-4.1-1.2H272.9z"/>
	<path id="XMLID_21_" class="st7" d="M315.8,64.6h-7.6V27.5h7.6v14.6l13.7-14.6h9.3l-15.7,17l18.4,20.1h-9.8l-16-17.1V64.6z"/>
	<path id="XMLID_19_" class="st7" d="M377.6,64.6h-27.8V27.5h27.2v6.8h-19.6v7.2h15.8v6.7h-15.8v9.5h20.2V64.6z"/>
	<path id="XMLID_17_" class="st7" d="M385.5,34.3v-6.8h31.1v6.8h-11.8v30.3h-7.6V34.3H385.5z"/>
	<path id="XMLID_15_" class="st7" d="M446.2,64.8H439l-15.6-37.3h8.4l10.8,26.7l10.9-26.7h8.3L446.2,64.8z"/>
	<path id="XMLID_13_" class="st7" d="M478.9,64.6h-7.6V27.5h7.6V64.6z"/>
	<path id="XMLID_9_" class="st7" d="M510.2,64.6h-18.7V27.5H509c3.4,0,6.2,0.8,8.2,2.4c2,1.6,3,3.9,3,6.8c0,1.8-0.4,3.3-1.3,4.6
		c-0.9,1.3-2,2.2-3.3,2.8c2,0.4,3.8,1.5,5.3,3.3c1.5,1.7,2.2,3.9,2.2,6.6c0,3.1-1.2,5.7-3.5,7.6C517.3,63.6,514.1,64.6,510.2,64.6z
		 M499.2,33.9V42h8.6c1.6,0,2.8-0.4,3.7-1.1c0.9-0.7,1.4-1.7,1.4-3c0-1.3-0.5-2.3-1.4-3c-0.9-0.7-2.1-1.1-3.7-1.1H499.2z
		 M499.2,48.3V58h9.6c1.9,0,3.4-0.4,4.5-1.2c1.1-0.8,1.6-2,1.6-3.6s-0.5-2.8-1.6-3.6c-1.1-0.8-2.5-1.3-4.5-1.3H499.2z"/>
	<path id="XMLID_6_" class="st7" d="M531.9,46.1c0-5.4,1.8-10,5.5-13.7c3.6-3.7,8.2-5.6,13.8-5.6c5.5,0,10.1,1.9,13.7,5.6
		c3.7,3.7,5.5,8.3,5.5,13.7c0,5.3-1.8,9.9-5.5,13.7c-3.6,3.7-8.2,5.6-13.7,5.6c-5.5,0-10.1-1.9-13.8-5.6S531.9,51.4,531.9,46.1z
		 M542.9,54.8c2.2,2.3,4.9,3.4,8.2,3.4c3.3,0,6-1.1,8.2-3.4c2.2-2.3,3.3-5.2,3.3-8.7s-1.1-6.4-3.3-8.7c-2.2-2.3-4.9-3.4-8.2-3.4
		c-3.3,0-6,1.1-8.2,3.4c-2.2,2.3-3.2,5.2-3.2,8.7S540.8,52.5,542.9,54.8z"/>
	<path id="XMLID_3_" class="st7" d="M589.2,64.6h-7.6V27.5h17.2c4,0,7.1,1,9.3,3.1c2.3,2,3.4,4.6,3.4,7.9c0,2.5-0.7,4.6-2,6.4
		c-1.4,1.8-3.2,3.1-5.6,3.8l11.4,15.8h-8.9l-10.8-15h-6.4V64.6z M589.2,34.2v9h9.1c1.7,0,3.1-0.4,4.1-1.2c1-0.8,1.5-1.9,1.5-3.3
		c0-1.4-0.5-2.5-1.5-3.3c-1-0.8-2.3-1.2-4.1-1.2H589.2z"/>
</g>
</svg>
