<?xml version="1.0" encoding="utf-8"?>
<!-- Generator: Adobe Illustrator 19.0.0, SVG Export Plug-In . SVG Version: 6.00 Build 0)  -->
<svg version="1.1" id="Слой_1" xmlns="http://www.w3.org/2000/svg" xmlns:xlink="http://www.w3.org/1999/xlink" x="0px" y="0px"
	 viewBox="-933.8 337.3 73 72.9" style="enable-background:new -933.8 337.3 73 72.9;" xml:space="preserve">
<style type="text/css">
	.st0{fill:#A3A3A3;}
</style>
<path class="st0" d="M-862,403.3l-17.9-17.9c9-11.7,8.1-28.6-2.7-39.3c-5.9-5.9-13.5-8.8-21.2-8.8c-7.7,0-15.3,2.9-21.2,8.8
	c-11.7,11.7-11.7,30.7,0,42.4c5.9,5.9,13.5,8.8,21.2,8.8c6.4,0,12.8-2,18.1-6.1l18,17.8c0.8,0.8,1.8,1.2,2.9,1.2
	c1,0,2.1-0.4,2.9-1.2C-860.4,407.5-860.4,404.9-862,403.3z M-903.7,389.2c-5.9,0-11.3-2.3-15.5-6.4c-8.5-8.5-8.5-22.4,0-31
	c4.1-4.1,9.6-6.4,15.5-6.4c5.9,0,11.3,2.3,15.5,6.4s6.4,9.6,6.4,15.5s-2.3,11.3-6.4,15.5C-892.3,387-897.9,389.2-903.7,389.2z"/>
</svg>
