<?xml version="1.0" encoding="utf-8"?>
<!-- Generator: Adobe Illustrator 19.0.0, SVG Export Plug-In . SVG Version: 6.00 Build 0)  -->
<svg version="1.1" id="Слой_1" xmlns="http://www.w3.org/2000/svg" xmlns:xlink="http://www.w3.org/1999/xlink" x="0px" y="0px"
	 viewBox="-1932.7 717.2 56.5 38.8" style="enable-background:new -1932.7 717.2 56.5 38.8;" xml:space="preserve">
<style type="text/css">
	.st0{fill:url(#SVGID_1_);}
	.st1{fill:url(#SVGID_2_);}
	.st2{fill:url(#SVGID_3_);}
	.st3{fill:url(#SVGID_4_);}
	.st4{fill:url(#SVGID_5_);}
	.st5{fill:url(#SVGID_6_);}
	.st6{fill:url(#SVGID_7_);}
	.st7{fill:url(#SVGID_8_);}
</style>
<g id="Слой_2">
	<g>
		
			<linearGradient id="SVGID_1_" gradientUnits="userSpaceOnUse" x1="-1932.25" y1="27.3512" x2="-1877.2449" y2="27.3512" gradientTransform="matrix(1 0 0 -1 0 772.0001)">
			<stop  offset="0" style="stop-color:#004199"/>
			<stop  offset="0.9996" style="stop-color:#007800"/>
		</linearGradient>
		<rect x="-1928.9" y="744" class="st0" width="6.4" height="1.2"/>
		
			<linearGradient id="SVGID_2_" gradientUnits="userSpaceOnUse" x1="-1932.25" y1="27.3512" x2="-1877.2449" y2="27.3512" gradientTransform="matrix(1 0 0 -1 0 772.0001)">
			<stop  offset="0" style="stop-color:#004199"/>
			<stop  offset="0.9996" style="stop-color:#007800"/>
		</linearGradient>
		<rect x="-1919.7" y="744" class="st1" width="6.4" height="1.2"/>
		
			<linearGradient id="SVGID_3_" gradientUnits="userSpaceOnUse" x1="-1932.25" y1="27.3512" x2="-1877.2449" y2="27.3512" gradientTransform="matrix(1 0 0 -1 0 772.0001)">
			<stop  offset="0" style="stop-color:#004199"/>
			<stop  offset="0.9996" style="stop-color:#007800"/>
		</linearGradient>
		<rect x="-1910.5" y="744" class="st2" width="6.4" height="1.2"/>
		
			<linearGradient id="SVGID_4_" gradientUnits="userSpaceOnUse" x1="-1932.25" y1="27.3512" x2="-1877.2449" y2="27.3512" gradientTransform="matrix(1 0 0 -1 0 772.0001)">
			<stop  offset="0" style="stop-color:#004199"/>
			<stop  offset="0.9996" style="stop-color:#007800"/>
		</linearGradient>
		<rect x="-1901.2" y="744" class="st3" width="6.4" height="1.2"/>
		
			<linearGradient id="SVGID_5_" gradientUnits="userSpaceOnUse" x1="-1932.25" y1="21.1081" x2="-1877.2449" y2="21.1081" gradientTransform="matrix(1 0 0 -1 0 772.0001)">
			<stop  offset="0" style="stop-color:#004199"/>
			<stop  offset="0.9996" style="stop-color:#007800"/>
		</linearGradient>
		<path class="st4" d="M-1900.7,754c0.6,0,1.2-0.2,1.6-0.5c0.5,0.3,1.1,0.5,1.6,0.5c1.7,0,3.1-1.4,3.1-3.1c0-1.8-1.4-3.1-3.1-3.1
			c-0.6,0-1.2,0.2-1.6,0.5c-0.5-0.3-1.1-0.5-1.6-0.5c-1.7,0-3.1,1.4-3.1,3.1C-1903.8,752.7-1902.4,754-1900.7,754z M-1900.7,749.1
			c0.5,0,0.9,0.2,1.2,0.5l0.5,0.4l0.5-0.4c0.3-0.3,0.8-0.5,1.2-0.5c1,0,1.8,0.8,1.8,1.8s-0.8,1.8-1.8,1.8c-0.5,0-0.9-0.2-1.2-0.5
			l-0.5-0.4l-0.5,0.4c-0.3,0.3-0.8,0.5-1.2,0.5c-1,0-1.8-0.8-1.8-1.8S-1901.7,749.1-1900.7,749.1z"/>
		
			<linearGradient id="SVGID_6_" gradientUnits="userSpaceOnUse" x1="-1932.25" y1="21.1081" x2="-1877.2449" y2="21.1081" gradientTransform="matrix(1 0 0 -1 0 772.0001)">
			<stop  offset="0" style="stop-color:#004199"/>
			<stop  offset="0.9996" style="stop-color:#007800"/>
		</linearGradient>
		<path class="st5" d="M-1919.8,749h-9.7v3.9h9.7V749z M-1921.1,751.6h-7.2v-1.3h7.2V751.6z"/>
		
			<linearGradient id="SVGID_7_" gradientUnits="userSpaceOnUse" x1="-1932.25" y1="40.8875" x2="-1877.2449" y2="40.8875" gradientTransform="matrix(1 0 0 -1 0 772.0001)">
			<stop  offset="0" style="stop-color:#004199"/>
			<stop  offset="0.9996" style="stop-color:#007800"/>
		</linearGradient>
		<path class="st6" d="M-1882.2,732.1h2c0.6,0,1-0.5,1-1v-0.1c0-0.5-0.5-1-1-1h-2c-0.6,0-1,0.5-1,1v0.1
			C-1883.2,731.7-1882.7,732.1-1882.2,732.1z"/>
		
			<linearGradient id="SVGID_8_" gradientUnits="userSpaceOnUse" x1="-1932.25" y1="35.4105" x2="-1877.2449" y2="35.4105" gradientTransform="matrix(1 0 0 -1 0 772.0001)">
			<stop  offset="0" style="stop-color:#004199"/>
			<stop  offset="0.9996" style="stop-color:#007800"/>
		</linearGradient>
		<path class="st7" d="M-1877.7,717.2h-23.8c-0.9,0-1.5,0.7-1.5,1.5v9.3h-24c-1.5,0-2.8,1.1-3.1,2.6c-1.5,0.3-2.6,1.5-2.6,3.1v19.2
			c0,1.8,1.4,3.1,3.1,3.1h35.8c1.5,0,2.8-1.1,3.1-2.6c1.5-0.3,2.6-1.5,2.6-3.1V735h10.4c0.9,0,1.5-0.7,1.5-1.5v-14.9
			C-1876.2,717.9-1876.9,717.2-1877.7,717.2z M-1891.9,752.8c0,1-0.9,1.9-1.9,1.9h-35.8c-1,0-1.9-0.9-1.9-1.9v-13.6h39.6V752.8
			L-1891.9,752.8z M-1891.9,738h-39.6v-1.6h39.6V738z M-1891.9,735.1h-39.6v-1.4c0-1,0.9-1.9,1.9-1.9h35.8c1,0,1.9,0.9,1.9,1.9
			L-1891.9,735.1L-1891.9,735.1z M-1889.4,750.3c0,0.8-0.5,1.5-1.2,1.8v-18.4c0-1.8-1.4-3.1-3.1-3.1h-35c0.3-0.7,1-1.2,1.8-1.2h35.8
			c1,0,1.9,0.9,1.9,1.9L-1889.4,750.3L-1889.4,750.3z M-1877.2,733.6c0,0.3-0.2,0.5-0.5,0.5h-10.4v-3c0-1.8-1.4-3.1-3.1-3.1h-10.8
			v-3.9h24.9V733.6z M-1877.2,723.1h-24.9v-2h24.9V723.1z M-1877.2,720.1h-24.9v-1.5c0-0.3,0.2-0.5,0.5-0.5h23.8
			c0.3,0,0.5,0.2,0.5,0.5V720.1L-1877.2,720.1z"/>
	</g>
</g>
</svg>
