<?xml version="1.0" encoding="utf-8"?>
<!-- Generator: Adobe Illustrator 19.0.0, SVG Export Plug-In . SVG Version: 6.00 Build 0)  -->
<svg version="1.1" id="Слой_1" xmlns="http://www.w3.org/2000/svg" xmlns:xlink="http://www.w3.org/1999/xlink" x="0px" y="0px"
	 viewBox="-1933.1 706.4 58.4 48.2" style="enable-background:new -1933.1 706.4 58.4 48.2;" xml:space="preserve">
<style type="text/css">
	.st0{fill:url(#SVGID_1_);}
	.st1{fill:url(#SVGID_2_);}
	.st2{fill:url(#SVGID_3_);}
	.st3{fill:url(#SVGID_4_);}
	.st4{fill:url(#SVGID_5_);}
	.st5{fill:url(#SVGID_6_);}
	.st6{fill:url(#SVGID_7_);}
	.st7{fill:url(#SVGID_8_);}
	.st8{fill:url(#SVGID_9_);}
	.st9{fill:url(#SVGID_10_);}
</style>
<g>
	
		<linearGradient id="SVGID_1_" gradientUnits="userSpaceOnUse" x1="-1932.25" y1="41.5361" x2="-1875.9977" y2="41.5361" gradientTransform="matrix(1 0 0 -1 0 771.9999)">
		<stop  offset="0" style="stop-color:#004199"/>
		<stop  offset="0.9996" style="stop-color:#007800"/>
	</linearGradient>
	<path class="st0" d="M-1874.8,733.6l-10.2-26.8c-0.1-0.1-0.2-0.2-0.4-0.4c-0.2-0.1-0.4-0.1-0.5,0l-19.3,7.4
		c-0.3,0.1-0.5,0.5-0.4,0.8l4,10.6h-27.8c-2.1,0-3.8,1.7-3.8,3.8v21.8c0,2.1,1.7,3.8,3.8,3.8h37.3c2.1,0,3.8-1.7,3.8-3.8v-11.4
		l13-4.9c0.1-0.1,0.2-0.2,0.4-0.4C-1874.7,733.9-1874.8,733.8-1874.8,733.6z M-1889.5,750.8c0,1.3-1.1,2.4-2.4,2.4h-37.3
		c-1.3,0-2.4-1.1-2.4-2.4V729c0-1.3,1.1-2.4,2.4-2.4h37.3c1.3,0,2.4,1.1,2.4,2.4V750.8z M-1888.1,738.1V732l7.6-2.9
		c0.3-0.1,0.5-0.5,0.4-0.8s-0.5-0.5-0.8-0.4l-7.1,2.8v-1.6l6.6-2.5c0.3-0.1,0.5-0.5,0.4-0.8c-0.1-0.3-0.5-0.5-0.8-0.4l-6.3,2.4
		c-0.1-0.5-0.4-0.9-0.6-1.3l6.5-2.5c0.3-0.1,0.4-0.4,0.4-0.8c-0.1-0.3-0.5-0.5-0.8-0.4l-7,2.7c-0.6-0.4-1.3-0.6-2.1-0.6h-0.6
		l9.1-3.5c0.4-0.1,0.5-0.4,0.4-0.7c-0.1-0.3-0.5-0.5-0.8-0.4l-12,4.5h-4.5l-4-10.5l18.3-7l9.8,25.8L-1888.1,738.1z"/>
	
		<linearGradient id="SVGID_2_" gradientUnits="userSpaceOnUse" x1="-1932.1097" y1="19.9852" x2="-1886.7437" y2="65.3512" gradientTransform="matrix(1 0 0 -1 0 771.9999)">
		<stop  offset="0" style="stop-color:#004199"/>
		<stop  offset="0.9996" style="stop-color:#007800"/>
	</linearGradient>
	<path class="st1" d="M-1897.4,720.4c0.2,0.2,0.4,0.2,0.6,0.1c0.3-0.1,0.4-0.4,0.4-0.8l-0.6-1.6l1.6-0.6c0.3-0.1,0.5-0.5,0.4-0.8
		s-0.5-0.5-0.8-0.4l-1.6,0.6l-0.6-1.6c-0.1-0.3-0.5-0.5-0.8-0.4c-0.3,0.1-0.5,0.5-0.4,0.8l0.6,1.6l-1.6,0.6
		c-0.3,0.1-0.5,0.5-0.4,0.8c0,0.1,0.1,0.2,0.1,0.2c0.2,0.2,0.4,0.2,0.6,0.1l1.6-0.6l0.6,1.6
		C-1897.5,720.3-1897.4,720.4-1897.4,720.4z"/>
	
		<linearGradient id="SVGID_3_" gradientUnits="userSpaceOnUse" x1="-1926.9688" y1="14.8443" x2="-1881.6027" y2="60.2104" gradientTransform="matrix(1 0 0 -1 0 771.9999)">
		<stop  offset="0" style="stop-color:#004199"/>
		<stop  offset="0.9996" style="stop-color:#007800"/>
	</linearGradient>
	<path class="st2" d="M-1898,723.9c0,0.1,0.1,0.2,0.1,0.2c0.2,0.2,0.4,0.2,0.6,0.1l12.9-5c0.4-0.1,0.5-0.5,0.4-0.8s-0.5-0.5-0.8-0.4
		l-12.9,5C-1897.9,723.3-1898.1,723.7-1898,723.9z"/>
	
		<linearGradient id="SVGID_4_" gradientUnits="userSpaceOnUse" x1="-1934.2479" y1="22.1234" x2="-1888.8818" y2="67.4895" gradientTransform="matrix(1 0 0 -1 0 771.9999)">
		<stop  offset="0" style="stop-color:#004199"/>
		<stop  offset="0.9996" style="stop-color:#007800"/>
	</linearGradient>
	<path class="st3" d="M-1925.5,741.9h5.4c0.8,0,1.4-0.6,1.4-1.4v-4.3c0-0.8-0.6-1.4-1.4-1.4h-5.4c-0.8,0-1.4,0.6-1.4,1.4v4.3
		C-1926.9,741.3-1926.2,741.9-1925.5,741.9z M-1925.5,736.2h5.4v4.3h-5.4V736.2z"/>
	
		<linearGradient id="SVGID_5_" gradientUnits="userSpaceOnUse" x1="-1927.5403" y1="15.4158" x2="-1882.1742" y2="60.7818" gradientTransform="matrix(1 0 0 -1 0 771.9999)">
		<stop  offset="0" style="stop-color:#004199"/>
		<stop  offset="0.9996" style="stop-color:#007800"/>
	</linearGradient>
	<path class="st4" d="M-1911,746.9h-15.2c-0.4,0-0.7,0.3-0.7,0.7c0,0.4,0.3,0.7,0.7,0.7h15.2c0.4,0,0.7-0.3,0.7-0.7
		C-1910.3,747.2-1910.6,746.9-1911,746.9z"/>
	
		<linearGradient id="SVGID_6_" gradientUnits="userSpaceOnUse" x1="-1921.0962" y1="8.9717" x2="-1875.7301" y2="54.3378" gradientTransform="matrix(1 0 0 -1 0 771.9999)">
		<stop  offset="0" style="stop-color:#004199"/>
		<stop  offset="0.9996" style="stop-color:#007800"/>
	</linearGradient>
	<path class="st5" d="M-1903.5,746.9h-4.5c-0.4,0-0.7,0.3-0.7,0.7c0,0.4,0.3,0.7,0.7,0.7h4.5c0.4,0,0.7-0.3,0.7-0.7
		C-1902.8,747.2-1903.1,746.9-1903.5,746.9z"/>
	
		<linearGradient id="SVGID_7_" gradientUnits="userSpaceOnUse" x1="-1924.9312" y1="12.8067" x2="-1879.5652" y2="58.1728" gradientTransform="matrix(1 0 0 -1 0 771.9999)">
		<stop  offset="0" style="stop-color:#004199"/>
		<stop  offset="0.9996" style="stop-color:#007800"/>
	</linearGradient>
	<path class="st6" d="M-1903.6,735.7c-0.2-0.3-0.6-0.4-1-0.1c-0.3,0.2-0.4,0.6-0.1,1c0.8,1.1,0.8,2.5,0,3.6
		c-0.1,0.1-0.1,0.2-0.1,0.4c0,0.4,0.3,0.7,0.7,0.7c0.2,0,0.5-0.1,0.6-0.3C-1902.4,739.4-1902.4,737.3-1903.6,735.7
		C-1903.5,735.8-1903.6,735.8-1903.6,735.7z"/>
	
		<linearGradient id="SVGID_8_" gradientUnits="userSpaceOnUse" x1="-1923.6727" y1="11.5482" x2="-1878.3066" y2="56.9142" gradientTransform="matrix(1 0 0 -1 0 771.9999)">
		<stop  offset="0" style="stop-color:#004199"/>
		<stop  offset="0.9996" style="stop-color:#007800"/>
	</linearGradient>
	<path class="st7" d="M-1901.9,734.2c-0.4,0.2-0.4,0.6-0.2,1c1.2,1.9,1.2,4.3,0,6.3c-0.1,0.1-0.1,0.2-0.1,0.4c0,0.4,0.3,0.7,0.7,0.7
		c0.2,0,0.5-0.1,0.6-0.4c1.5-2.3,1.5-5.3,0-7.7C-1901.1,734.2-1901.6,734.1-1901.9,734.2z"/>
	
		<linearGradient id="SVGID_9_" gradientUnits="userSpaceOnUse" x1="-1922.3938" y1="10.2693" x2="-1877.0277" y2="55.6354" gradientTransform="matrix(1 0 0 -1 0 771.9999)">
		<stop  offset="0" style="stop-color:#004199"/>
		<stop  offset="0.9996" style="stop-color:#007800"/>
	</linearGradient>
	<path class="st8" d="M-1898.3,733.2c0-0.1-0.1-0.1-0.1-0.1c-0.2-0.3-0.6-0.4-1-0.2c-0.4,0.2-0.4,0.6-0.2,1c1.6,2.8,1.6,6.2,0,9
		c-0.1,0.1-0.1,0.2-0.1,0.4c0,0.4,0.3,0.7,0.7,0.7c0.2,0,0.5-0.1,0.6-0.4C-1896.5,740.3-1896.5,736.4-1898.3,733.2z"/>
	
		<linearGradient id="SVGID_10_" gradientUnits="userSpaceOnUse" x1="-1921.0083" y1="8.8838" x2="-1875.6422" y2="54.2499" gradientTransform="matrix(1 0 0 -1 0 771.9999)">
		<stop  offset="0" style="stop-color:#004199"/>
		<stop  offset="0.9996" style="stop-color:#007800"/>
	</linearGradient>
	<path class="st9" d="M-1896.6,731.5c-0.4,0.2-0.5,0.6-0.2,0.9c2.1,3.7,2.1,8.1,0,11.8c-0.1,0.1-0.1,0.2-0.1,0.4
		c0,0.4,0.3,0.7,0.7,0.7c0.2,0,0.5-0.1,0.6-0.4c2.3-4.1,2.3-9.1,0-13.2C-1895.8,731.4-1896.2,731.3-1896.6,731.5z"/>
</g>
</svg>
