<?xml version="1.0" encoding="utf-8"?>
<!-- Generator: Adobe Illustrator 19.0.0, SVG Export Plug-In . SVG Version: 6.00 Build 0)  -->
<svg version="1.1" id="Слой_1" xmlns="http://www.w3.org/2000/svg" xmlns:xlink="http://www.w3.org/1999/xlink" x="0px" y="0px"
	 viewBox="-1933.3 704.2 57.5 48.6" style="enable-background:new -1933.3 704.2 57.5 48.6;" xml:space="preserve">
<style type="text/css">
	.st0{fill:url(#SVGID_1_);}
	.st1{fill:url(#SVGID_2_);}
	.st2{fill:url(#SVGID_3_);}
	.st3{fill:url(#SVGID_4_);}
	.st4{fill:url(#SVGID_5_);}
</style>
<g>
	
		<linearGradient id="SVGID_1_" gradientUnits="userSpaceOnUse" x1="-1932.5" y1="32.1296" x2="-1877.2223" y2="32.1296" gradientTransform="matrix(1 0 0 -1 0 772)">
		<stop  offset="0" style="stop-color:#004199"/>
		<stop  offset="1" style="stop-color:#007800"/>
	</linearGradient>
	<path class="st0" d="M-1928.7,742.3h4.8v-4.8h-4.8V742.3z M-1927,739.2h1.3v1.3h-1.3V739.2z"/>
	
		<linearGradient id="SVGID_2_" gradientUnits="userSpaceOnUse" x1="-1932.5" y1="32.1296" x2="-1877.2223" y2="32.1296" gradientTransform="matrix(1 0 0 -1 0 772)">
		<stop  offset="0" style="stop-color:#004199"/>
		<stop  offset="1" style="stop-color:#007800"/>
	</linearGradient>
	<path class="st1" d="M-1897.9,742.3h4.8v-4.8h-4.8V742.3z M-1896.2,739.2h1.3v1.3h-1.3V739.2z"/>
	
		<linearGradient id="SVGID_3_" gradientUnits="userSpaceOnUse" x1="-1932.5" y1="32.1296" x2="-1877.2223" y2="32.1296" gradientTransform="matrix(1 0 0 -1 0 772)">
		<stop  offset="0" style="stop-color:#004199"/>
		<stop  offset="1" style="stop-color:#007800"/>
	</linearGradient>
	<rect x="-1920" y="739" class="st2" width="18.4" height="1.7"/>
	
		<linearGradient id="SVGID_4_" gradientUnits="userSpaceOnUse" x1="-1932.5" y1="43.4669" x2="-1877.2223" y2="43.4669" gradientTransform="matrix(1 0 0 -1 0 772)">
		<stop  offset="0" style="stop-color:#004199"/>
		<stop  offset="1" style="stop-color:#007800"/>
	</linearGradient>
	<path class="st3" d="M-1878,716.7l-3.1-9.2c-0.6-1.9-2.3-3.3-4.2-3.3h-24c-1.9,0-3.7,1.3-4.2,3.1l-3.1,9.4c-1,0.4-1.5,1.2-1.9,2.1
		h-5c-2.1,0-3.8,1.3-4.4,3.3l-3.1,9.8c-1.3,0.6-2.3,1.9-2.3,3.5v13.3h1v4.2h5.6v-4.2h31.7v4.2h5.6v-4.2h1v-13.3c0-1-0.4-1.9-1.2-2.7
		h7.5v4h5.4v-4h1V720C-1875.6,718.6-1876.6,717.3-1878,716.7z M-1912,707.9c0.4-1.2,1.5-1.9,2.7-1.9h24c1.3,0,2.3,0.8,2.7,2.1
		l2.7,8.5h-35L-1912,707.9z M-1926.4,722.7c0.4-1.3,1.5-2.1,2.9-2.1h25.2c1.3,0,2.5,0.8,2.9,2.1l2.9,8.8h-36.5L-1926.4,722.7z
		 M-1928.5,750.9h-2.1v-2.5h2.1V750.9z M-1891,750.9h-2.1v-2.5h2.1V750.9z M-1890.1,746.9h-4.8h-31.7h-4.8v-11.5
		c0-1.2,1-2.1,2.1-2.1h37.1c1.2,0,2.1,1,2.1,2.1L-1890.1,746.9L-1890.1,746.9z M-1878.1,735.2h-2.1v-2.3h2.1V735.2z M-1877.4,731.1
		h-13.6l-1.9-6h4.4v-1.7h-5l-0.4-1.5c-0.6-1.9-2.5-3.3-4.4-3.3h-18.1c0.4-0.4,1-0.8,1.5-0.8h35.5c1.2,0,2.1,1,2.1,2.1v11.1H-1877.4z
		"/>
	
		<linearGradient id="SVGID_5_" gradientUnits="userSpaceOnUse" x1="-1932.5" y1="47.5983" x2="-1877.2223" y2="47.5983" gradientTransform="matrix(1 0 0 -1 0 772)">
		<stop  offset="0" style="stop-color:#004199"/>
		<stop  offset="1" style="stop-color:#007800"/>
	</linearGradient>
	<path class="st4" d="M-1884.7,726.7h4.6v-4.6h-4.6V726.7z M-1883.1,723.8h1.3v1.3h-1.3V723.8z"/>
</g>
</svg>
