<?xml version="1.0" encoding="utf-8"?>
<!-- Generator: Adobe Illustrator 19.0.0, SVG Export Plug-In . SVG Version: 6.00 Build 0)  -->
<svg version="1.1" id="Слой_2_1_" xmlns="http://www.w3.org/2000/svg" xmlns:xlink="http://www.w3.org/1999/xlink" x="0px"
	 y="0px" viewBox="-1942.5 698.7 60.6 63.9" style="enable-background:new -1942.5 698.7 60.6 63.9;" xml:space="preserve">
<style type="text/css">
	.st0{fill:url(#SVGID_1_);}
	.st1{fill:url(#SVGID_2_);}
	.st2{fill:url(#SVGID_3_);}
</style>
<linearGradient id="SVGID_1_" gradientUnits="userSpaceOnUse" x1="-1941.75" y1="41.4" x2="-1882.4952" y2="41.4" gradientTransform="matrix(1 0 0 -1 0 772)">
	<stop  offset="0" style="stop-color:#004199"/>
	<stop  offset="1" style="stop-color:#007800"/>
</linearGradient>
<path class="st0" d="M-1882,698.7h-60.4v60.4h5.8v3.4h11.3v-3.4h26.4v3.4h11.3v-3.4h5.8v-60.4H-1882z M-1936.6,744.8h-3.6V713h3.6
	V744.8z M-1927.8,760.3h-6.6v-1.2h6.6V760.3z M-1890.1,760.3h-6.6v-1.2h6.6V760.3z M-1884.3,756.9h-56V747h3.6v6.2h48.7v-48.7h-48.7
	v6.2h-3.6v-9.9h56V756.9L-1884.3,756.9z M-1934.4,751v-44.3h44.3V751H-1934.4z"/>
<linearGradient id="SVGID_2_" gradientUnits="userSpaceOnUse" x1="-1941.75" y1="43.1121" x2="-1882.4952" y2="43.1121" gradientTransform="matrix(1 0 0 -1 0 772)">
	<stop  offset="0" style="stop-color:#004199"/>
	<stop  offset="1" style="stop-color:#007800"/>
</linearGradient>
<path class="st1" d="M-1912.3,716.8c-6.6,0-12.1,5.4-12.1,12.1c0,6.6,5.4,12.1,12.1,12.1c6.6,0,12.1-5.4,12.1-12.1
	C-1900.2,722.2-1905.6,716.8-1912.3,716.8z M-1912.3,738.8c-5,0-9.3-3.8-9.7-8.7h2.2c0.6,3.6,3.6,6.6,7.5,6.6c4.2,0,7.7-3.4,7.7-7.7
	c0-4.2-3.4-7.7-7.7-7.7c-3.8,0-7,2.8-7.5,6.6h-2.2c0.6-4.8,4.6-8.7,9.7-8.7c5.4,0,9.9,4.4,9.9,9.9
	C-1902.4,734.3-1906.8,738.8-1912.3,738.8z M-1917.7,728.9c0-3,2.4-5.4,5.4-5.4c3,0,5.4,2.4,5.4,5.4c0,3-2.4,5.4-5.4,5.4
	C-1915.3,734.3-1917.7,731.9-1917.7,728.9z"/>
<linearGradient id="SVGID_3_" gradientUnits="userSpaceOnUse" x1="-1941.75" y1="43.2128" x2="-1882.4952" y2="43.2128" gradientTransform="matrix(1 0 0 -1 0 772)">
	<stop  offset="0" style="stop-color:#004199"/>
	<stop  offset="1" style="stop-color:#007800"/>
</linearGradient>
<rect x="-1896.1" y="722.2" class="st2" width="2.2" height="13.1"/>
</svg>
