<?xml version="1.0" encoding="utf-8"?>
<!-- Generator: Adobe Illustrator 19.0.0, SVG Export Plug-In . SVG Version: 6.00 Build 0)  -->
<svg version="1.1" id="Слой_1" xmlns="http://www.w3.org/2000/svg" xmlns:xlink="http://www.w3.org/1999/xlink" x="0px" y="0px"
	 viewBox="-1933 702 58 59.9" style="enable-background:new -1933 702 58 59.9;" xml:space="preserve">
<style type="text/css">
	.st0{fill:url(#SVGID_1_);}
	.st1{fill:url(#SVGID_2_);}
	.st2{fill:url(#SVGID_3_);}
	.st3{fill:url(#SVGID_4_);}
	.st4{fill:url(#SVGID_5_);}
	.st5{fill:url(#SVGID_6_);}
	.st6{fill:url(#SVGID_7_);}
	.st7{fill:url(#SVGID_8_);}
	.st8{fill:url(#SVGID_9_);}
	.st9{fill:url(#SVGID_10_);}
</style>
<g>
	
		<linearGradient id="SVGID_1_" gradientUnits="userSpaceOnUse" x1="-1932.25" y1="45" x2="-1878.2355" y2="45" gradientTransform="matrix(1 0 0 -1 0 772)">
		<stop  offset="0" style="stop-color:#004199"/>
		<stop  offset="1" style="stop-color:#007800"/>
	</linearGradient>
	<path class="st0" d="M-1904,731.2h-1.5c-0.7,0-1.2-0.6-1.2-1.2h-2c0,1.7,1.3,3.1,3,3.2v1.8h2v-1.8c1.7-0.1,3-1.5,3-3.2v-0.8
		c0-1.8-1.5-3.2-3.2-3.2h-1.5c-0.7,0-1.2-0.6-1.2-1.2V724c0-0.7,0.6-1.2,1.2-1.2h1.5c0.7,0,1.2,0.6,1.2,1.2h2c0-1.7-1.3-3.1-3-3.2
		V719h-2v1.8c-1.7,0.1-3,1.5-3,3.2v0.8c0,1.8,1.5,3.2,3.2,3.2h1.5c0.7,0,1.2,0.6,1.2,1.2v0.8C-1902.8,730.7-1903.3,731.2-1904,731.2
		z"/>
	
		<linearGradient id="SVGID_2_" gradientUnits="userSpaceOnUse" x1="-1932.25" y1="63" x2="-1878.2355" y2="63" gradientTransform="matrix(1 0 0 -1 0 772)">
		<stop  offset="0" style="stop-color:#004199"/>
		<stop  offset="1" style="stop-color:#007800"/>
	</linearGradient>
	<path class="st1" d="M-1886,716c3.9,0,7-3.1,7-7s-3.1-7-7-7s-7,3.1-7,7S-1889.9,716-1886,716z M-1886,704c2.8,0,5,2.2,5,5
		s-2.2,5-5,5s-5-2.2-5-5S-1888.8,704-1886,704z"/>
	
		<linearGradient id="SVGID_3_" gradientUnits="userSpaceOnUse" x1="-1932.25" y1="63" x2="-1878.2355" y2="63" gradientTransform="matrix(1 0 0 -1 0 772)">
		<stop  offset="0" style="stop-color:#004199"/>
		<stop  offset="1" style="stop-color:#007800"/>
	</linearGradient>
	<polygon class="st2" points="-1887,712 -1885,712 -1885,710 -1883,710 -1883,708 -1885,708 -1885,706 -1887,706 -1887,708 
		-1889,708 -1889,710 -1887,710 	"/>
	
		<linearGradient id="SVGID_4_" gradientUnits="userSpaceOnUse" x1="-1932.25" y1="46" x2="-1878.2355" y2="46" gradientTransform="matrix(1 0 0 -1 0 772)">
		<stop  offset="0" style="stop-color:#004199"/>
		<stop  offset="1" style="stop-color:#007800"/>
	</linearGradient>
	<polygon class="st3" points="-1927,725 -1929,725 -1929,723 -1931,723 -1931,725 -1933,725 -1933,727 -1931,727 -1931,729 
		-1929,729 -1929,727 -1927,727 	"/>
	
		<linearGradient id="SVGID_5_" gradientUnits="userSpaceOnUse" x1="-1932.25" y1="37" x2="-1878.2355" y2="37" gradientTransform="matrix(1 0 0 -1 0 772)">
		<stop  offset="0" style="stop-color:#004199"/>
		<stop  offset="1" style="stop-color:#007800"/>
	</linearGradient>
	<polygon class="st4" points="-1877,734 -1877,732 -1879,732 -1879,734 -1881,734 -1881,736 -1879,736 -1879,738 -1877,738 
		-1877,736 -1875,736 -1875,734 	"/>
	
		<linearGradient id="SVGID_6_" gradientUnits="userSpaceOnUse" x1="-1932.25" y1="39" x2="-1878.2355" y2="39" gradientTransform="matrix(1 0 0 -1 0 772)">
		<stop  offset="0" style="stop-color:#004199"/>
		<stop  offset="1" style="stop-color:#007800"/>
	</linearGradient>
	<rect x="-1927" y="732" class="st5" width="2" height="2"/>
	
		<linearGradient id="SVGID_7_" gradientUnits="userSpaceOnUse" x1="-1932.25" y1="47" x2="-1878.2355" y2="47" gradientTransform="matrix(1 0 0 -1 0 772)">
		<stop  offset="0" style="stop-color:#004199"/>
		<stop  offset="1" style="stop-color:#007800"/>
	</linearGradient>
	<rect x="-1880" y="724" class="st6" width="2" height="2"/>
	
		<linearGradient id="SVGID_8_" gradientUnits="userSpaceOnUse" x1="-1932.25" y1="35" x2="-1878.2355" y2="35" gradientTransform="matrix(1 0 0 -1 0 772)">
		<stop  offset="0" style="stop-color:#004199"/>
		<stop  offset="1" style="stop-color:#007800"/>
	</linearGradient>
	<rect x="-1887" y="736" class="st7" width="2" height="2"/>
	
		<linearGradient id="SVGID_9_" gradientUnits="userSpaceOnUse" x1="-1932.25" y1="54" x2="-1878.2355" y2="54" gradientTransform="matrix(1 0 0 -1 0 772)">
		<stop  offset="0" style="stop-color:#004199"/>
		<stop  offset="1" style="stop-color:#007800"/>
	</linearGradient>
	<rect x="-1929" y="717" class="st8" width="2" height="2"/>
	
		<linearGradient id="SVGID_10_" gradientUnits="userSpaceOnUse" x1="-1932.25" y1="36.1448" x2="-1878.2355" y2="36.1448" gradientTransform="matrix(1 0 0 -1 0 772)">
		<stop  offset="0" style="stop-color:#004199"/>
		<stop  offset="1" style="stop-color:#007800"/>
	</linearGradient>
	<path class="st9" d="M-1879.7,747l-0.3,0.1c0-0.1,0-0.1,0-0.2c0-0.9-0.4-1.8-1.1-2.3c-0.7-0.6-1.7-0.7-2.5-0.5l-2.2,0.6
		c0.8-1.3,0.3-3-1-3.8c-1.1-0.6-2.5-0.5-3.4,0.4l-6.5,6.5l-2.4,0.7h-4.6l-2.4-1.2l4.7-3.6l0.1-0.1c0,0,0-0.1,0.1-0.1
		c9.2-1.9,15.1-11,13.1-20.2c-1.9-9.2-11-15.1-20.2-13.1c-9.2,2-15.1,11-13.1,20.2c1.2,5.5,5,10.1,10.2,12.2l-3.3,3.3h-4.6v-2h-9v18
		h9v-2h4.9l8.9,2c0.1,0,0.1,0,0.2,0s0.2,0,0.3-0.1l26.5-9.9c1.4-0.5,2.1-2,1.6-3.4C-1877.1,747.4-1878.4,746.7-1879.7,747z
		 M-1921,760h-5v-14h5V760z M-1888.8,742.8c0.3-0.3,0.8-0.3,1.1,0l0.1,0.1c0.2,0.3,0.2,0.7-0.1,1l-1.9,1.9l-3.1,0.9L-1888.8,742.8z
		 M-1899,750.6c0.1,0,0.2,0,0.3,0l15.6-4.5c0.5-0.1,1,0.1,1.1,0.6c0,0.1,0,0.2,0,0.2c0,0.4-0.3,0.7-0.7,0.8l-15.2,3.8l-1.9-0.9
		H-1899z M-1919.8,727c0-8.3,6.7-15,15-15c8.3,0,15,6.7,15,15c0,6.5-4.2,12.3-10.5,14.3c0-0.7-0.2-1.4-0.6-1.9
		c-0.9-1.1-2.7-1.6-4.7-0.2l-3.6,2.2C-1915.4,739.4-1919.7,733.6-1919.8,727z M-1878.9,750.2l-26.2,9.8l-8.7-1.9c-0.1,0-0.1,0-0.2,0
		h-5v-10h5c0.3,0,0.5-0.1,0.7-0.3l3.9-3.9l4.9-3c0.9-0.6,1.7-0.7,2.1-0.2c0.3,0.5,0.2,1.2-0.3,1.6l-5.9,4.5c-0.4,0.3-0.5,1-0.2,1.4
		c0.1,0.1,0.2,0.2,0.3,0.3l10,5c0.2,0.1,0.5,0.1,0.7,0.1l18.5-4.6c0.4-0.1,0.7,0.1,0.8,0.5C-1878.3,749.7-1878.5,750.1-1878.9,750.2
		z"/>
</g>
</svg>
