<?xml version="1.0" encoding="utf-8"?>
<!-- Generator: Adobe Illustrator 19.0.0, SVG Export Plug-In . SVG Version: 6.00 Build 0)  -->
<svg version="1.1"
	 id="Слой_1" xmlns:inkscape="http://www.inkscape.org/namespaces/inkscape" xmlns:rdf="http://www.w3.org/1999/02/22-rdf-syntax-ns#" xmlns:svg="http://www.w3.org/2000/svg" xmlns:cc="http://creativecommons.org/ns#" xmlns:sodipodi="http://sodipodi.sourceforge.net/DTD/sodipodi-0.dtd" xmlns:dc="http://purl.org/dc/elements/1.1/"
	 xmlns="http://www.w3.org/2000/svg" xmlns:xlink="http://www.w3.org/1999/xlink" x="0px" y="0px"
	 viewBox="-712.9 577.6 222.1 222.1" style="enable-background:new -712.9 577.6 222.1 222.1;" xml:space="preserve">
<style type="text/css">
	.st0{fill:url(#SVGID_1_);}
	.st1{fill:url(#SVGID_2_);}
	.st2{fill:url(#SVGID_3_);}
	.st3{fill:url(#SVGID_4_);}
	.st4{fill:url(#SVGID_5_);}
	.st5{fill:url(#SVGID_6_);}
	.st6{fill:url(#SVGID_7_);}
	.st7{fill:url(#SVGID_8_);}
	.st8{fill:url(#SVGID_9_);}
</style>
<linearGradient id="SVGID_1_" gradientUnits="userSpaceOnUse" x1="-696" y1="718.2285" x2="-506.9973" y2="718.2285">
	<stop  offset="0" style="stop-color:#004199"/>
	<stop  offset="1" style="stop-color:#007800"/>
</linearGradient>
<path class="st0" d="M-505.6,762.6V655.3c0-10.4-8.1-18.5-18.5-18.5H-550v7.4h25.9c6.3,0,11.1,4.8,11.1,11.1v107.3h-7.4v-111H-550
	v7.4h22.2v103.6h-148.1V659h22.2v-7.4h-29.6v111h-7.4V655.3c0-6.3,4.8-11.1,11.1-11.1h25.9v-7.4h-25.9c-10.4,0-18.5,8.1-18.5,18.5
	v107.3h-14.8v18.5c0,10.4,8.1,18.5,18.5,18.5h185.1c10.4,0,18.5-8.1,18.5-18.5v-18.5H-505.6z M-616.6,770h29.6v3.7
	c0,2.2-1.5,3.7-3.7,3.7h-22.2c-2.2,0-3.7-1.5-3.7-3.7V770z M-498.2,781.1c0,6.3-4.8,11.1-11.1,11.1h-185.1
	c-6.3,0-11.1-4.8-11.1-11.1V770h81.4v3.7c0,6.3,4.8,11.1,11.1,11.1h22.2c6.3,0,11.1-4.8,11.1-11.1V770h81.4V781.1z"/>
<linearGradient id="SVGID_2_" gradientUnits="userSpaceOnUse" x1="-696" y1="633.0995" x2="-506.9973" y2="633.0995">
	<stop  offset="0" style="stop-color:#004199"/>
	<stop  offset="1" style="stop-color:#007800"/>
</linearGradient>
<path class="st1" d="M-585.2,577.6h-61.1v111h88.8v-79.2L-585.2,577.6z M-583.3,591.3l14.1,15.9h-14.1V591.3z M-638.8,681.2V585
	h48.1v29.6h25.9v66.6H-638.8z"/>
<linearGradient id="SVGID_3_" gradientUnits="userSpaceOnUse" x1="-631.4468" y1="596.087" x2="-598.1355" y2="596.087">
	<stop  offset="0" style="stop-color:#004199"/>
	<stop  offset="1" style="stop-color:#007800"/>
</linearGradient>
<rect x="-631.4" y="592.4" class="st2" width="33.3" height="7.4"/>
<linearGradient id="SVGID_4_" gradientUnits="userSpaceOnUse" x1="-631.4468" y1="610.892" x2="-598.1355" y2="610.892">
	<stop  offset="0" style="stop-color:#004199"/>
	<stop  offset="1" style="stop-color:#007800"/>
</linearGradient>
<rect x="-631.4" y="607.2" class="st3" width="33.3" height="7.4"/>
<linearGradient id="SVGID_5_" gradientUnits="userSpaceOnUse" x1="-631.4468" y1="625.697" x2="-572.2267" y2="625.697">
	<stop  offset="0" style="stop-color:#004199"/>
	<stop  offset="1" style="stop-color:#007800"/>
</linearGradient>
<rect x="-631.4" y="622" class="st4" width="59.2" height="7.4"/>
<linearGradient id="SVGID_6_" gradientUnits="userSpaceOnUse" x1="-696" y1="640.5021" x2="-506.9973" y2="640.5021">
	<stop  offset="0" style="stop-color:#004199"/>
	<stop  offset="1" style="stop-color:#007800"/>
</linearGradient>
<rect x="-631.4" y="636.8" class="st5" width="59.2" height="7.4"/>
<linearGradient id="SVGID_7_" gradientUnits="userSpaceOnUse" x1="-696" y1="655.3071" x2="-506.9973" y2="655.3071">
	<stop  offset="0" style="stop-color:#004199"/>
	<stop  offset="1" style="stop-color:#007800"/>
</linearGradient>
<rect x="-631.4" y="651.6" class="st6" width="59.2" height="7.4"/>
<linearGradient id="SVGID_8_" gradientUnits="userSpaceOnUse" x1="-696" y1="670.1122" x2="-506.9973" y2="670.1122">
	<stop  offset="0" style="stop-color:#004199"/>
	<stop  offset="1" style="stop-color:#007800"/>
</linearGradient>
<rect x="-631.4" y="666.4" class="st7" width="59.2" height="7.4"/>
<linearGradient id="SVGID_9_" gradientUnits="userSpaceOnUse" x1="-696" y1="714.5273" x2="-506.9973" y2="714.5273">
	<stop  offset="0" style="stop-color:#004199"/>
	<stop  offset="1" style="stop-color:#007800"/>
</linearGradient>
<path class="st8" d="M-535.2,718.2h-55.5v-7.4h-7.4V696h-7.4v14.8h-7.4v7.4h-55.5v7.4h55.5v7.4h22.2v-7.4h55.5V718.2z M-598.1,725.6
	h-7.4v-7.4h7.4V725.6z"/>
</svg>
